<?xml version="1.0" encoding="UTF-8" standalone="no"?>
<svg width="227.189mm" height="170.744mm"
 viewBox="0 0 644 484"
 xmlns="http://www.w3.org/2000/svg" xmlns:xlink="http://www.w3.org/1999/xlink"  version="1.2" baseProfile="tiny">
<title>Qt SVG Document</title>
<desc>Generated with Qt</desc>
<defs>
</defs>
<g fill="none" stroke="black" stroke-width="1" fill-rule="evenodd" stroke-linecap="square" stroke-linejoin="bevel" >

<g fill="none" stroke="#000000" stroke-opacity="1" stroke-width="1" stroke-linecap="square" stroke-linejoin="bevel" transform="matrix(1,0,0,1,0,0)"
font-family="Cantarell" font-size="11" font-weight="400" font-style="normal" 
>
</g>

<g fill="none" stroke="#000000" stroke-opacity="1" stroke-width="1" stroke-linecap="square" stroke-linejoin="bevel" transform="matrix(1.00625,0,0,1.00625,0,0)"
font-family="Cantarell" font-size="11" font-weight="400" font-style="normal" 
>
</g>

<g fill="none" stroke="#000000" stroke-opacity="1" stroke-width="1" stroke-linecap="round" stroke-linejoin="round" transform="matrix(1.00625,0,0,1.00625,0,0)"
font-family="Cantarell" font-size="11" font-weight="400" font-style="normal" 
>
<polyline fill="none" vector-effect="none" points="60.5,432.5 66.5,432.5 " />
<polyline fill="none" vector-effect="none" points="618.5,432.5 612.5,432.5 " />
</g>

<g fill="none" stroke="#000000" stroke-opacity="1" stroke-width="1" stroke-linecap="square" stroke-linejoin="bevel" transform="matrix(1.00625,0,0,1.00625,0,0)"
font-family="Cantarell" font-size="11" font-weight="400" font-style="normal" 
>
</g>

<g fill="none" stroke="#000000" stroke-opacity="1" stroke-width="1" stroke-linecap="square" stroke-linejoin="bevel" transform="matrix(1.00625,0,0,1.00625,43.2688,439.228)"
font-family="Cantarell" font-size="11" font-weight="400" font-style="normal" 
>
</g>

<g fill="none" stroke="#000000" stroke-opacity="1" stroke-width="1" stroke-linecap="square" stroke-linejoin="bevel" transform="matrix(1.00625,0,0,1.00625,43.2688,439.228)"
font-family="Cantarell" font-size="11" font-weight="400" font-style="normal" 
>
</g>

<g fill="none" stroke="#000000" stroke-opacity="1" stroke-width="1" stroke-linecap="square" stroke-linejoin="bevel" transform="matrix(1.00625,0,0,1.00625,43.2688,439.228)"
font-family="Cantarell" font-size="11" font-weight="400" font-style="normal" 
>
</g>

<g fill="none" stroke="#000000" stroke-opacity="1" stroke-width="1" stroke-linecap="square" stroke-linejoin="bevel" transform="matrix(1.00625,0,0,1.00625,43.2688,439.228)"
font-family="Cantarell" font-size="11" font-weight="400" font-style="normal" 
>
</g>

<g fill="none" stroke="#000000" stroke-opacity="1" stroke-width="1" stroke-linecap="square" stroke-linejoin="bevel" transform="matrix(1.00625,0,0,1.00625,43.2688,439.228)"
font-family="Cantarell" font-size="11" font-weight="400" font-style="normal" 
>
</g>

<g fill="none" stroke="#000000" stroke-opacity="1" stroke-width="1" stroke-linecap="square" stroke-linejoin="bevel" transform="matrix(1.00625,0,0,1.00625,43.2688,439.228)"
font-family="Sans" font-size="9" font-weight="400" font-style="normal" 
>
<text fill="#000000" fill-opacity="1" stroke="none" xml:space="preserve" x="0" y="0" font-family="Sans" font-size="9" font-weight="400" font-style="normal" 
 > 0</text>
</g>

<g fill="none" stroke="#000000" stroke-opacity="1" stroke-width="1" stroke-linecap="square" stroke-linejoin="bevel" transform="matrix(1.00625,0,0,1.00625,43.2688,439.228)"
font-family="Cantarell" font-size="11" font-weight="400" font-style="normal" 
>
</g>

<g fill="none" stroke="#000000" stroke-opacity="1" stroke-width="1" stroke-linecap="square" stroke-linejoin="bevel" transform="matrix(1.00625,0,0,1.00625,0,0)"
font-family="Cantarell" font-size="11" font-weight="400" font-style="normal" 
>
</g>

<g fill="none" stroke="#000000" stroke-opacity="1" stroke-width="1" stroke-linecap="round" stroke-linejoin="round" transform="matrix(1.00625,0,0,1.00625,0,0)"
font-family="Cantarell" font-size="11" font-weight="400" font-style="normal" 
>
<polyline fill="none" vector-effect="none" points="60.5,354.5 66.5,354.5 " />
<polyline fill="none" vector-effect="none" points="618.5,354.5 612.5,354.5 " />
</g>

<g fill="none" stroke="#000000" stroke-opacity="1" stroke-width="1" stroke-linecap="square" stroke-linejoin="bevel" transform="matrix(1.00625,0,0,1.00625,0,0)"
font-family="Cantarell" font-size="11" font-weight="400" font-style="normal" 
>
</g>

<g fill="none" stroke="#000000" stroke-opacity="1" stroke-width="1" stroke-linecap="square" stroke-linejoin="bevel" transform="matrix(1.00625,0,0,1.00625,31.1938,361.747)"
font-family="Cantarell" font-size="11" font-weight="400" font-style="normal" 
>
</g>

<g fill="none" stroke="#000000" stroke-opacity="1" stroke-width="1" stroke-linecap="square" stroke-linejoin="bevel" transform="matrix(1.00625,0,0,1.00625,31.1938,361.747)"
font-family="Cantarell" font-size="11" font-weight="400" font-style="normal" 
>
</g>

<g fill="none" stroke="#000000" stroke-opacity="1" stroke-width="1" stroke-linecap="square" stroke-linejoin="bevel" transform="matrix(1.00625,0,0,1.00625,31.1938,361.747)"
font-family="Cantarell" font-size="11" font-weight="400" font-style="normal" 
>
</g>

<g fill="none" stroke="#000000" stroke-opacity="1" stroke-width="1" stroke-linecap="square" stroke-linejoin="bevel" transform="matrix(1.00625,0,0,1.00625,31.1938,361.747)"
font-family="Cantarell" font-size="11" font-weight="400" font-style="normal" 
>
</g>

<g fill="none" stroke="#000000" stroke-opacity="1" stroke-width="1" stroke-linecap="square" stroke-linejoin="bevel" transform="matrix(1.00625,0,0,1.00625,31.1938,361.747)"
font-family="Cantarell" font-size="11" font-weight="400" font-style="normal" 
>
</g>

<g fill="none" stroke="#000000" stroke-opacity="1" stroke-width="1" stroke-linecap="square" stroke-linejoin="bevel" transform="matrix(1.00625,0,0,1.00625,31.1938,361.747)"
font-family="Sans" font-size="9" font-weight="400" font-style="normal" 
>
<text fill="#000000" fill-opacity="1" stroke="none" xml:space="preserve" x="0" y="0" font-family="Sans" font-size="9" font-weight="400" font-style="normal" 
 > 0.5</text>
</g>

<g fill="none" stroke="#000000" stroke-opacity="1" stroke-width="1" stroke-linecap="square" stroke-linejoin="bevel" transform="matrix(1.00625,0,0,1.00625,31.1938,361.747)"
font-family="Cantarell" font-size="11" font-weight="400" font-style="normal" 
>
</g>

<g fill="none" stroke="#000000" stroke-opacity="1" stroke-width="1" stroke-linecap="square" stroke-linejoin="bevel" transform="matrix(1.00625,0,0,1.00625,0,0)"
font-family="Cantarell" font-size="11" font-weight="400" font-style="normal" 
>
</g>

<g fill="none" stroke="#000000" stroke-opacity="1" stroke-width="1" stroke-linecap="round" stroke-linejoin="round" transform="matrix(1.00625,0,0,1.00625,0,0)"
font-family="Cantarell" font-size="11" font-weight="400" font-style="normal" 
>
<polyline fill="none" vector-effect="none" points="60.5,277.5 66.5,277.5 " />
<polyline fill="none" vector-effect="none" points="618.5,277.5 612.5,277.5 " />
</g>

<g fill="none" stroke="#000000" stroke-opacity="1" stroke-width="1" stroke-linecap="square" stroke-linejoin="bevel" transform="matrix(1.00625,0,0,1.00625,0,0)"
font-family="Cantarell" font-size="11" font-weight="400" font-style="normal" 
>
</g>

<g fill="none" stroke="#000000" stroke-opacity="1" stroke-width="1" stroke-linecap="square" stroke-linejoin="bevel" transform="matrix(1.00625,0,0,1.00625,43.2688,283.259)"
font-family="Cantarell" font-size="11" font-weight="400" font-style="normal" 
>
</g>

<g fill="none" stroke="#000000" stroke-opacity="1" stroke-width="1" stroke-linecap="square" stroke-linejoin="bevel" transform="matrix(1.00625,0,0,1.00625,43.2688,283.259)"
font-family="Cantarell" font-size="11" font-weight="400" font-style="normal" 
>
</g>

<g fill="none" stroke="#000000" stroke-opacity="1" stroke-width="1" stroke-linecap="square" stroke-linejoin="bevel" transform="matrix(1.00625,0,0,1.00625,43.2688,283.259)"
font-family="Cantarell" font-size="11" font-weight="400" font-style="normal" 
>
</g>

<g fill="none" stroke="#000000" stroke-opacity="1" stroke-width="1" stroke-linecap="square" stroke-linejoin="bevel" transform="matrix(1.00625,0,0,1.00625,43.2688,283.259)"
font-family="Cantarell" font-size="11" font-weight="400" font-style="normal" 
>
</g>

<g fill="none" stroke="#000000" stroke-opacity="1" stroke-width="1" stroke-linecap="square" stroke-linejoin="bevel" transform="matrix(1.00625,0,0,1.00625,43.2688,283.259)"
font-family="Cantarell" font-size="11" font-weight="400" font-style="normal" 
>
</g>

<g fill="none" stroke="#000000" stroke-opacity="1" stroke-width="1" stroke-linecap="square" stroke-linejoin="bevel" transform="matrix(1.00625,0,0,1.00625,43.2688,283.259)"
font-family="Sans" font-size="9" font-weight="400" font-style="normal" 
>
<text fill="#000000" fill-opacity="1" stroke="none" xml:space="preserve" x="0" y="0" font-family="Sans" font-size="9" font-weight="400" font-style="normal" 
 > 1</text>
</g>

<g fill="none" stroke="#000000" stroke-opacity="1" stroke-width="1" stroke-linecap="square" stroke-linejoin="bevel" transform="matrix(1.00625,0,0,1.00625,43.2688,283.259)"
font-family="Cantarell" font-size="11" font-weight="400" font-style="normal" 
>
</g>

<g fill="none" stroke="#000000" stroke-opacity="1" stroke-width="1" stroke-linecap="square" stroke-linejoin="bevel" transform="matrix(1.00625,0,0,1.00625,0,0)"
font-family="Cantarell" font-size="11" font-weight="400" font-style="normal" 
>
</g>

<g fill="none" stroke="#000000" stroke-opacity="1" stroke-width="1" stroke-linecap="round" stroke-linejoin="round" transform="matrix(1.00625,0,0,1.00625,0,0)"
font-family="Cantarell" font-size="11" font-weight="400" font-style="normal" 
>
<polyline fill="none" vector-effect="none" points="60.5,199.5 66.5,199.5 " />
<polyline fill="none" vector-effect="none" points="618.5,199.5 612.5,199.5 " />
</g>

<g fill="none" stroke="#000000" stroke-opacity="1" stroke-width="1" stroke-linecap="square" stroke-linejoin="bevel" transform="matrix(1.00625,0,0,1.00625,0,0)"
font-family="Cantarell" font-size="11" font-weight="400" font-style="normal" 
>
</g>

<g fill="none" stroke="#000000" stroke-opacity="1" stroke-width="1" stroke-linecap="square" stroke-linejoin="bevel" transform="matrix(1.00625,0,0,1.00625,31.1938,205.778)"
font-family="Cantarell" font-size="11" font-weight="400" font-style="normal" 
>
</g>

<g fill="none" stroke="#000000" stroke-opacity="1" stroke-width="1" stroke-linecap="square" stroke-linejoin="bevel" transform="matrix(1.00625,0,0,1.00625,31.1938,205.778)"
font-family="Cantarell" font-size="11" font-weight="400" font-style="normal" 
>
</g>

<g fill="none" stroke="#000000" stroke-opacity="1" stroke-width="1" stroke-linecap="square" stroke-linejoin="bevel" transform="matrix(1.00625,0,0,1.00625,31.1938,205.778)"
font-family="Cantarell" font-size="11" font-weight="400" font-style="normal" 
>
</g>

<g fill="none" stroke="#000000" stroke-opacity="1" stroke-width="1" stroke-linecap="square" stroke-linejoin="bevel" transform="matrix(1.00625,0,0,1.00625,31.1938,205.778)"
font-family="Cantarell" font-size="11" font-weight="400" font-style="normal" 
>
</g>

<g fill="none" stroke="#000000" stroke-opacity="1" stroke-width="1" stroke-linecap="square" stroke-linejoin="bevel" transform="matrix(1.00625,0,0,1.00625,31.1938,205.778)"
font-family="Cantarell" font-size="11" font-weight="400" font-style="normal" 
>
</g>

<g fill="none" stroke="#000000" stroke-opacity="1" stroke-width="1" stroke-linecap="square" stroke-linejoin="bevel" transform="matrix(1.00625,0,0,1.00625,31.1938,205.778)"
font-family="Sans" font-size="9" font-weight="400" font-style="normal" 
>
<text fill="#000000" fill-opacity="1" stroke="none" xml:space="preserve" x="0" y="0" font-family="Sans" font-size="9" font-weight="400" font-style="normal" 
 > 1.5</text>
</g>

<g fill="none" stroke="#000000" stroke-opacity="1" stroke-width="1" stroke-linecap="square" stroke-linejoin="bevel" transform="matrix(1.00625,0,0,1.00625,31.1938,205.778)"
font-family="Cantarell" font-size="11" font-weight="400" font-style="normal" 
>
</g>

<g fill="none" stroke="#000000" stroke-opacity="1" stroke-width="1" stroke-linecap="square" stroke-linejoin="bevel" transform="matrix(1.00625,0,0,1.00625,0,0)"
font-family="Cantarell" font-size="11" font-weight="400" font-style="normal" 
>
</g>

<g fill="none" stroke="#000000" stroke-opacity="1" stroke-width="1" stroke-linecap="round" stroke-linejoin="round" transform="matrix(1.00625,0,0,1.00625,0,0)"
font-family="Cantarell" font-size="11" font-weight="400" font-style="normal" 
>
<polyline fill="none" vector-effect="none" points="60.5,122.5 66.5,122.5 " />
<polyline fill="none" vector-effect="none" points="618.5,122.5 612.5,122.5 " />
</g>

<g fill="none" stroke="#000000" stroke-opacity="1" stroke-width="1" stroke-linecap="square" stroke-linejoin="bevel" transform="matrix(1.00625,0,0,1.00625,0,0)"
font-family="Cantarell" font-size="11" font-weight="400" font-style="normal" 
>
</g>

<g fill="none" stroke="#000000" stroke-opacity="1" stroke-width="1" stroke-linecap="square" stroke-linejoin="bevel" transform="matrix(1.00625,0,0,1.00625,43.2688,128.297)"
font-family="Cantarell" font-size="11" font-weight="400" font-style="normal" 
>
</g>

<g fill="none" stroke="#000000" stroke-opacity="1" stroke-width="1" stroke-linecap="square" stroke-linejoin="bevel" transform="matrix(1.00625,0,0,1.00625,43.2688,128.297)"
font-family="Cantarell" font-size="11" font-weight="400" font-style="normal" 
>
</g>

<g fill="none" stroke="#000000" stroke-opacity="1" stroke-width="1" stroke-linecap="square" stroke-linejoin="bevel" transform="matrix(1.00625,0,0,1.00625,43.2688,128.297)"
font-family="Cantarell" font-size="11" font-weight="400" font-style="normal" 
>
</g>

<g fill="none" stroke="#000000" stroke-opacity="1" stroke-width="1" stroke-linecap="square" stroke-linejoin="bevel" transform="matrix(1.00625,0,0,1.00625,43.2688,128.297)"
font-family="Cantarell" font-size="11" font-weight="400" font-style="normal" 
>
</g>

<g fill="none" stroke="#000000" stroke-opacity="1" stroke-width="1" stroke-linecap="square" stroke-linejoin="bevel" transform="matrix(1.00625,0,0,1.00625,43.2688,128.297)"
font-family="Cantarell" font-size="11" font-weight="400" font-style="normal" 
>
</g>

<g fill="none" stroke="#000000" stroke-opacity="1" stroke-width="1" stroke-linecap="square" stroke-linejoin="bevel" transform="matrix(1.00625,0,0,1.00625,43.2688,128.297)"
font-family="Sans" font-size="9" font-weight="400" font-style="normal" 
>
<text fill="#000000" fill-opacity="1" stroke="none" xml:space="preserve" x="0" y="0" font-family="Sans" font-size="9" font-weight="400" font-style="normal" 
 > 2</text>
</g>

<g fill="none" stroke="#000000" stroke-opacity="1" stroke-width="1" stroke-linecap="square" stroke-linejoin="bevel" transform="matrix(1.00625,0,0,1.00625,43.2688,128.297)"
font-family="Cantarell" font-size="11" font-weight="400" font-style="normal" 
>
</g>

<g fill="none" stroke="#000000" stroke-opacity="1" stroke-width="1" stroke-linecap="square" stroke-linejoin="bevel" transform="matrix(1.00625,0,0,1.00625,0,0)"
font-family="Cantarell" font-size="11" font-weight="400" font-style="normal" 
>
</g>

<g fill="none" stroke="#000000" stroke-opacity="1" stroke-width="1" stroke-linecap="round" stroke-linejoin="round" transform="matrix(1.00625,0,0,1.00625,0,0)"
font-family="Cantarell" font-size="11" font-weight="400" font-style="normal" 
>
<polyline fill="none" vector-effect="none" points="60.5,45.5 66.5,45.5 " />
<polyline fill="none" vector-effect="none" points="618.5,45.5 612.5,45.5 " />
</g>

<g fill="none" stroke="#000000" stroke-opacity="1" stroke-width="1" stroke-linecap="square" stroke-linejoin="bevel" transform="matrix(1.00625,0,0,1.00625,0,0)"
font-family="Cantarell" font-size="11" font-weight="400" font-style="normal" 
>
</g>

<g fill="none" stroke="#000000" stroke-opacity="1" stroke-width="1" stroke-linecap="square" stroke-linejoin="bevel" transform="matrix(1.00625,0,0,1.00625,31.1938,49.8094)"
font-family="Cantarell" font-size="11" font-weight="400" font-style="normal" 
>
</g>

<g fill="none" stroke="#000000" stroke-opacity="1" stroke-width="1" stroke-linecap="square" stroke-linejoin="bevel" transform="matrix(1.00625,0,0,1.00625,31.1938,49.8094)"
font-family="Cantarell" font-size="11" font-weight="400" font-style="normal" 
>
</g>

<g fill="none" stroke="#000000" stroke-opacity="1" stroke-width="1" stroke-linecap="square" stroke-linejoin="bevel" transform="matrix(1.00625,0,0,1.00625,31.1938,49.8094)"
font-family="Cantarell" font-size="11" font-weight="400" font-style="normal" 
>
</g>

<g fill="none" stroke="#000000" stroke-opacity="1" stroke-width="1" stroke-linecap="square" stroke-linejoin="bevel" transform="matrix(1.00625,0,0,1.00625,31.1938,49.8094)"
font-family="Cantarell" font-size="11" font-weight="400" font-style="normal" 
>
</g>

<g fill="none" stroke="#000000" stroke-opacity="1" stroke-width="1" stroke-linecap="square" stroke-linejoin="bevel" transform="matrix(1.00625,0,0,1.00625,31.1938,49.8094)"
font-family="Cantarell" font-size="11" font-weight="400" font-style="normal" 
>
</g>

<g fill="none" stroke="#000000" stroke-opacity="1" stroke-width="1" stroke-linecap="square" stroke-linejoin="bevel" transform="matrix(1.00625,0,0,1.00625,31.1938,49.8094)"
font-family="Sans" font-size="9" font-weight="400" font-style="normal" 
>
<text fill="#000000" fill-opacity="1" stroke="none" xml:space="preserve" x="0" y="0" font-family="Sans" font-size="9" font-weight="400" font-style="normal" 
 > 2.5</text>
</g>

<g fill="none" stroke="#000000" stroke-opacity="1" stroke-width="1" stroke-linecap="square" stroke-linejoin="bevel" transform="matrix(1.00625,0,0,1.00625,31.1938,49.8094)"
font-family="Cantarell" font-size="11" font-weight="400" font-style="normal" 
>
</g>

<g fill="none" stroke="#000000" stroke-opacity="1" stroke-width="1" stroke-linecap="square" stroke-linejoin="bevel" transform="matrix(1.00625,0,0,1.00625,0,0)"
font-family="Cantarell" font-size="11" font-weight="400" font-style="normal" 
>
</g>

<g fill="none" stroke="#000000" stroke-opacity="1" stroke-width="1" stroke-linecap="round" stroke-linejoin="round" transform="matrix(1.00625,0,0,1.00625,0,0)"
font-family="Cantarell" font-size="11" font-weight="400" font-style="normal" 
>
<polyline fill="none" vector-effect="none" points="60.5,432.5 60.5,426.5 " />
<polyline fill="none" vector-effect="none" points="60.5,45.5 60.5,51.5 " />
</g>

<g fill="none" stroke="#000000" stroke-opacity="1" stroke-width="1" stroke-linecap="square" stroke-linejoin="bevel" transform="matrix(1.00625,0,0,1.00625,0,0)"
font-family="Cantarell" font-size="11" font-weight="400" font-style="normal" 
>
</g>

<g fill="none" stroke="#000000" stroke-opacity="1" stroke-width="1" stroke-linecap="square" stroke-linejoin="bevel" transform="matrix(1.00625,0,0,1.00625,55.8469,454.322)"
font-family="Cantarell" font-size="11" font-weight="400" font-style="normal" 
>
</g>

<g fill="none" stroke="#000000" stroke-opacity="1" stroke-width="1" stroke-linecap="square" stroke-linejoin="bevel" transform="matrix(1.00625,0,0,1.00625,55.8469,454.322)"
font-family="Cantarell" font-size="11" font-weight="400" font-style="normal" 
>
</g>

<g fill="none" stroke="#000000" stroke-opacity="1" stroke-width="1" stroke-linecap="square" stroke-linejoin="bevel" transform="matrix(1.00625,0,0,1.00625,55.8469,454.322)"
font-family="Cantarell" font-size="11" font-weight="400" font-style="normal" 
>
</g>

<g fill="none" stroke="#000000" stroke-opacity="1" stroke-width="1" stroke-linecap="square" stroke-linejoin="bevel" transform="matrix(1.00625,0,0,1.00625,55.8469,454.322)"
font-family="Cantarell" font-size="11" font-weight="400" font-style="normal" 
>
</g>

<g fill="none" stroke="#000000" stroke-opacity="1" stroke-width="1" stroke-linecap="square" stroke-linejoin="bevel" transform="matrix(1.00625,0,0,1.00625,55.8469,454.322)"
font-family="Cantarell" font-size="11" font-weight="400" font-style="normal" 
>
</g>

<g fill="none" stroke="#000000" stroke-opacity="1" stroke-width="1" stroke-linecap="square" stroke-linejoin="bevel" transform="matrix(1.00625,0,0,1.00625,55.8469,454.322)"
font-family="Sans" font-size="9" font-weight="400" font-style="normal" 
>
<text fill="#000000" fill-opacity="1" stroke="none" xml:space="preserve" x="0" y="0" font-family="Sans" font-size="9" font-weight="400" font-style="normal" 
 > 0</text>
</g>

<g fill="none" stroke="#000000" stroke-opacity="1" stroke-width="1" stroke-linecap="square" stroke-linejoin="bevel" transform="matrix(1.00625,0,0,1.00625,55.8469,454.322)"
font-family="Cantarell" font-size="11" font-weight="400" font-style="normal" 
>
</g>

<g fill="none" stroke="#000000" stroke-opacity="1" stroke-width="1" stroke-linecap="square" stroke-linejoin="bevel" transform="matrix(1.00625,0,0,1.00625,0,0)"
font-family="Cantarell" font-size="11" font-weight="400" font-style="normal" 
>
</g>

<g fill="none" stroke="#000000" stroke-opacity="1" stroke-width="1" stroke-linecap="round" stroke-linejoin="round" transform="matrix(1.00625,0,0,1.00625,0,0)"
font-family="Cantarell" font-size="11" font-weight="400" font-style="normal" 
>
<polyline fill="none" vector-effect="none" points="172.5,432.5 172.5,426.5 " />
<polyline fill="none" vector-effect="none" points="172.5,45.5 172.5,51.5 " />
</g>

<g fill="none" stroke="#000000" stroke-opacity="1" stroke-width="1" stroke-linecap="square" stroke-linejoin="bevel" transform="matrix(1.00625,0,0,1.00625,0,0)"
font-family="Cantarell" font-size="11" font-weight="400" font-style="normal" 
>
</g>

<g fill="none" stroke="#000000" stroke-opacity="1" stroke-width="1" stroke-linecap="square" stroke-linejoin="bevel" transform="matrix(1.00625,0,0,1.00625,159.491,454.322)"
font-family="Cantarell" font-size="11" font-weight="400" font-style="normal" 
>
</g>

<g fill="none" stroke="#000000" stroke-opacity="1" stroke-width="1" stroke-linecap="square" stroke-linejoin="bevel" transform="matrix(1.00625,0,0,1.00625,159.491,454.322)"
font-family="Cantarell" font-size="11" font-weight="400" font-style="normal" 
>
</g>

<g fill="none" stroke="#000000" stroke-opacity="1" stroke-width="1" stroke-linecap="square" stroke-linejoin="bevel" transform="matrix(1.00625,0,0,1.00625,159.491,454.322)"
font-family="Cantarell" font-size="11" font-weight="400" font-style="normal" 
>
</g>

<g fill="none" stroke="#000000" stroke-opacity="1" stroke-width="1" stroke-linecap="square" stroke-linejoin="bevel" transform="matrix(1.00625,0,0,1.00625,159.491,454.322)"
font-family="Cantarell" font-size="11" font-weight="400" font-style="normal" 
>
</g>

<g fill="none" stroke="#000000" stroke-opacity="1" stroke-width="1" stroke-linecap="square" stroke-linejoin="bevel" transform="matrix(1.00625,0,0,1.00625,159.491,454.322)"
font-family="Cantarell" font-size="11" font-weight="400" font-style="normal" 
>
</g>

<g fill="none" stroke="#000000" stroke-opacity="1" stroke-width="1" stroke-linecap="square" stroke-linejoin="bevel" transform="matrix(1.00625,0,0,1.00625,159.491,454.322)"
font-family="Sans" font-size="9" font-weight="400" font-style="normal" 
>
<text fill="#000000" fill-opacity="1" stroke="none" xml:space="preserve" x="0" y="0" font-family="Sans" font-size="9" font-weight="400" font-style="normal" 
 > 200</text>
</g>

<g fill="none" stroke="#000000" stroke-opacity="1" stroke-width="1" stroke-linecap="square" stroke-linejoin="bevel" transform="matrix(1.00625,0,0,1.00625,159.491,454.322)"
font-family="Cantarell" font-size="11" font-weight="400" font-style="normal" 
>
</g>

<g fill="none" stroke="#000000" stroke-opacity="1" stroke-width="1" stroke-linecap="square" stroke-linejoin="bevel" transform="matrix(1.00625,0,0,1.00625,0,0)"
font-family="Cantarell" font-size="11" font-weight="400" font-style="normal" 
>
</g>

<g fill="none" stroke="#000000" stroke-opacity="1" stroke-width="1" stroke-linecap="round" stroke-linejoin="round" transform="matrix(1.00625,0,0,1.00625,0,0)"
font-family="Cantarell" font-size="11" font-weight="400" font-style="normal" 
>
<polyline fill="none" vector-effect="none" points="283.5,432.5 283.5,426.5 " />
<polyline fill="none" vector-effect="none" points="283.5,45.5 283.5,51.5 " />
</g>

<g fill="none" stroke="#000000" stroke-opacity="1" stroke-width="1" stroke-linecap="square" stroke-linejoin="bevel" transform="matrix(1.00625,0,0,1.00625,0,0)"
font-family="Cantarell" font-size="11" font-weight="400" font-style="normal" 
>
</g>

<g fill="none" stroke="#000000" stroke-opacity="1" stroke-width="1" stroke-linecap="square" stroke-linejoin="bevel" transform="matrix(1.00625,0,0,1.00625,272.191,454.322)"
font-family="Cantarell" font-size="11" font-weight="400" font-style="normal" 
>
</g>

<g fill="none" stroke="#000000" stroke-opacity="1" stroke-width="1" stroke-linecap="square" stroke-linejoin="bevel" transform="matrix(1.00625,0,0,1.00625,272.191,454.322)"
font-family="Cantarell" font-size="11" font-weight="400" font-style="normal" 
>
</g>

<g fill="none" stroke="#000000" stroke-opacity="1" stroke-width="1" stroke-linecap="square" stroke-linejoin="bevel" transform="matrix(1.00625,0,0,1.00625,272.191,454.322)"
font-family="Cantarell" font-size="11" font-weight="400" font-style="normal" 
>
</g>

<g fill="none" stroke="#000000" stroke-opacity="1" stroke-width="1" stroke-linecap="square" stroke-linejoin="bevel" transform="matrix(1.00625,0,0,1.00625,272.191,454.322)"
font-family="Cantarell" font-size="11" font-weight="400" font-style="normal" 
>
</g>

<g fill="none" stroke="#000000" stroke-opacity="1" stroke-width="1" stroke-linecap="square" stroke-linejoin="bevel" transform="matrix(1.00625,0,0,1.00625,272.191,454.322)"
font-family="Cantarell" font-size="11" font-weight="400" font-style="normal" 
>
</g>

<g fill="none" stroke="#000000" stroke-opacity="1" stroke-width="1" stroke-linecap="square" stroke-linejoin="bevel" transform="matrix(1.00625,0,0,1.00625,272.191,454.322)"
font-family="Sans" font-size="9" font-weight="400" font-style="normal" 
>
<text fill="#000000" fill-opacity="1" stroke="none" xml:space="preserve" x="0" y="0" font-family="Sans" font-size="9" font-weight="400" font-style="normal" 
 > 400</text>
</g>

<g fill="none" stroke="#000000" stroke-opacity="1" stroke-width="1" stroke-linecap="square" stroke-linejoin="bevel" transform="matrix(1.00625,0,0,1.00625,272.191,454.322)"
font-family="Cantarell" font-size="11" font-weight="400" font-style="normal" 
>
</g>

<g fill="none" stroke="#000000" stroke-opacity="1" stroke-width="1" stroke-linecap="square" stroke-linejoin="bevel" transform="matrix(1.00625,0,0,1.00625,0,0)"
font-family="Cantarell" font-size="11" font-weight="400" font-style="normal" 
>
</g>

<g fill="none" stroke="#000000" stroke-opacity="1" stroke-width="1" stroke-linecap="round" stroke-linejoin="round" transform="matrix(1.00625,0,0,1.00625,0,0)"
font-family="Cantarell" font-size="11" font-weight="400" font-style="normal" 
>
<polyline fill="none" vector-effect="none" points="395.5,432.5 395.5,426.5 " />
<polyline fill="none" vector-effect="none" points="395.5,45.5 395.5,51.5 " />
</g>

<g fill="none" stroke="#000000" stroke-opacity="1" stroke-width="1" stroke-linecap="square" stroke-linejoin="bevel" transform="matrix(1.00625,0,0,1.00625,0,0)"
font-family="Cantarell" font-size="11" font-weight="400" font-style="normal" 
>
</g>

<g fill="none" stroke="#000000" stroke-opacity="1" stroke-width="1" stroke-linecap="square" stroke-linejoin="bevel" transform="matrix(1.00625,0,0,1.00625,384.891,454.322)"
font-family="Cantarell" font-size="11" font-weight="400" font-style="normal" 
>
</g>

<g fill="none" stroke="#000000" stroke-opacity="1" stroke-width="1" stroke-linecap="square" stroke-linejoin="bevel" transform="matrix(1.00625,0,0,1.00625,384.891,454.322)"
font-family="Cantarell" font-size="11" font-weight="400" font-style="normal" 
>
</g>

<g fill="none" stroke="#000000" stroke-opacity="1" stroke-width="1" stroke-linecap="square" stroke-linejoin="bevel" transform="matrix(1.00625,0,0,1.00625,384.891,454.322)"
font-family="Cantarell" font-size="11" font-weight="400" font-style="normal" 
>
</g>

<g fill="none" stroke="#000000" stroke-opacity="1" stroke-width="1" stroke-linecap="square" stroke-linejoin="bevel" transform="matrix(1.00625,0,0,1.00625,384.891,454.322)"
font-family="Cantarell" font-size="11" font-weight="400" font-style="normal" 
>
</g>

<g fill="none" stroke="#000000" stroke-opacity="1" stroke-width="1" stroke-linecap="square" stroke-linejoin="bevel" transform="matrix(1.00625,0,0,1.00625,384.891,454.322)"
font-family="Cantarell" font-size="11" font-weight="400" font-style="normal" 
>
</g>

<g fill="none" stroke="#000000" stroke-opacity="1" stroke-width="1" stroke-linecap="square" stroke-linejoin="bevel" transform="matrix(1.00625,0,0,1.00625,384.891,454.322)"
font-family="Sans" font-size="9" font-weight="400" font-style="normal" 
>
<text fill="#000000" fill-opacity="1" stroke="none" xml:space="preserve" x="0" y="0" font-family="Sans" font-size="9" font-weight="400" font-style="normal" 
 > 600</text>
</g>

<g fill="none" stroke="#000000" stroke-opacity="1" stroke-width="1" stroke-linecap="square" stroke-linejoin="bevel" transform="matrix(1.00625,0,0,1.00625,384.891,454.322)"
font-family="Cantarell" font-size="11" font-weight="400" font-style="normal" 
>
</g>

<g fill="none" stroke="#000000" stroke-opacity="1" stroke-width="1" stroke-linecap="square" stroke-linejoin="bevel" transform="matrix(1.00625,0,0,1.00625,0,0)"
font-family="Cantarell" font-size="11" font-weight="400" font-style="normal" 
>
</g>

<g fill="none" stroke="#000000" stroke-opacity="1" stroke-width="1" stroke-linecap="round" stroke-linejoin="round" transform="matrix(1.00625,0,0,1.00625,0,0)"
font-family="Cantarell" font-size="11" font-weight="400" font-style="normal" 
>
<polyline fill="none" vector-effect="none" points="507.5,432.5 507.5,426.5 " />
<polyline fill="none" vector-effect="none" points="507.5,45.5 507.5,51.5 " />
</g>

<g fill="none" stroke="#000000" stroke-opacity="1" stroke-width="1" stroke-linecap="square" stroke-linejoin="bevel" transform="matrix(1.00625,0,0,1.00625,0,0)"
font-family="Cantarell" font-size="11" font-weight="400" font-style="normal" 
>
</g>

<g fill="none" stroke="#000000" stroke-opacity="1" stroke-width="1" stroke-linecap="square" stroke-linejoin="bevel" transform="matrix(1.00625,0,0,1.00625,496.584,454.322)"
font-family="Cantarell" font-size="11" font-weight="400" font-style="normal" 
>
</g>

<g fill="none" stroke="#000000" stroke-opacity="1" stroke-width="1" stroke-linecap="square" stroke-linejoin="bevel" transform="matrix(1.00625,0,0,1.00625,496.584,454.322)"
font-family="Cantarell" font-size="11" font-weight="400" font-style="normal" 
>
</g>

<g fill="none" stroke="#000000" stroke-opacity="1" stroke-width="1" stroke-linecap="square" stroke-linejoin="bevel" transform="matrix(1.00625,0,0,1.00625,496.584,454.322)"
font-family="Cantarell" font-size="11" font-weight="400" font-style="normal" 
>
</g>

<g fill="none" stroke="#000000" stroke-opacity="1" stroke-width="1" stroke-linecap="square" stroke-linejoin="bevel" transform="matrix(1.00625,0,0,1.00625,496.584,454.322)"
font-family="Cantarell" font-size="11" font-weight="400" font-style="normal" 
>
</g>

<g fill="none" stroke="#000000" stroke-opacity="1" stroke-width="1" stroke-linecap="square" stroke-linejoin="bevel" transform="matrix(1.00625,0,0,1.00625,496.584,454.322)"
font-family="Cantarell" font-size="11" font-weight="400" font-style="normal" 
>
</g>

<g fill="none" stroke="#000000" stroke-opacity="1" stroke-width="1" stroke-linecap="square" stroke-linejoin="bevel" transform="matrix(1.00625,0,0,1.00625,496.584,454.322)"
font-family="Sans" font-size="9" font-weight="400" font-style="normal" 
>
<text fill="#000000" fill-opacity="1" stroke="none" xml:space="preserve" x="0" y="0" font-family="Sans" font-size="9" font-weight="400" font-style="normal" 
 > 800</text>
</g>

<g fill="none" stroke="#000000" stroke-opacity="1" stroke-width="1" stroke-linecap="square" stroke-linejoin="bevel" transform="matrix(1.00625,0,0,1.00625,496.584,454.322)"
font-family="Cantarell" font-size="11" font-weight="400" font-style="normal" 
>
</g>

<g fill="none" stroke="#000000" stroke-opacity="1" stroke-width="1" stroke-linecap="square" stroke-linejoin="bevel" transform="matrix(1.00625,0,0,1.00625,0,0)"
font-family="Cantarell" font-size="11" font-weight="400" font-style="normal" 
>
</g>

<g fill="none" stroke="#000000" stroke-opacity="1" stroke-width="1" stroke-linecap="round" stroke-linejoin="round" transform="matrix(1.00625,0,0,1.00625,0,0)"
font-family="Cantarell" font-size="11" font-weight="400" font-style="normal" 
>
<polyline fill="none" vector-effect="none" points="618.5,432.5 618.5,426.5 " />
<polyline fill="none" vector-effect="none" points="618.5,45.5 618.5,51.5 " />
</g>

<g fill="none" stroke="#000000" stroke-opacity="1" stroke-width="1" stroke-linecap="square" stroke-linejoin="bevel" transform="matrix(1.00625,0,0,1.00625,0,0)"
font-family="Cantarell" font-size="11" font-weight="400" font-style="normal" 
>
</g>

<g fill="none" stroke="#000000" stroke-opacity="1" stroke-width="1" stroke-linecap="square" stroke-linejoin="bevel" transform="matrix(1.00625,0,0,1.00625,605.259,454.322)"
font-family="Cantarell" font-size="11" font-weight="400" font-style="normal" 
>
</g>

<g fill="none" stroke="#000000" stroke-opacity="1" stroke-width="1" stroke-linecap="square" stroke-linejoin="bevel" transform="matrix(1.00625,0,0,1.00625,605.259,454.322)"
font-family="Cantarell" font-size="11" font-weight="400" font-style="normal" 
>
</g>

<g fill="none" stroke="#000000" stroke-opacity="1" stroke-width="1" stroke-linecap="square" stroke-linejoin="bevel" transform="matrix(1.00625,0,0,1.00625,605.259,454.322)"
font-family="Cantarell" font-size="11" font-weight="400" font-style="normal" 
>
</g>

<g fill="none" stroke="#000000" stroke-opacity="1" stroke-width="1" stroke-linecap="square" stroke-linejoin="bevel" transform="matrix(1.00625,0,0,1.00625,605.259,454.322)"
font-family="Cantarell" font-size="11" font-weight="400" font-style="normal" 
>
</g>

<g fill="none" stroke="#000000" stroke-opacity="1" stroke-width="1" stroke-linecap="square" stroke-linejoin="bevel" transform="matrix(1.00625,0,0,1.00625,605.259,454.322)"
font-family="Cantarell" font-size="11" font-weight="400" font-style="normal" 
>
</g>

<g fill="none" stroke="#000000" stroke-opacity="1" stroke-width="1" stroke-linecap="square" stroke-linejoin="bevel" transform="matrix(1.00625,0,0,1.00625,605.259,454.322)"
font-family="Sans" font-size="9" font-weight="400" font-style="normal" 
>
<text fill="#000000" fill-opacity="1" stroke="none" xml:space="preserve" x="0" y="0" font-family="Sans" font-size="9" font-weight="400" font-style="normal" 
 > 1000</text>
</g>

<g fill="none" stroke="#000000" stroke-opacity="1" stroke-width="1" stroke-linecap="square" stroke-linejoin="bevel" transform="matrix(1.00625,0,0,1.00625,605.259,454.322)"
font-family="Cantarell" font-size="11" font-weight="400" font-style="normal" 
>
</g>

<g fill="none" stroke="#000000" stroke-opacity="1" stroke-width="1" stroke-linecap="square" stroke-linejoin="bevel" transform="matrix(1.00625,0,0,1.00625,0,0)"
font-family="Cantarell" font-size="11" font-weight="400" font-style="normal" 
>
</g>

<g fill="none" stroke="#000000" stroke-opacity="1" stroke-width="1" stroke-linecap="round" stroke-linejoin="round" transform="matrix(1.00625,0,0,1.00625,0,0)"
font-family="Cantarell" font-size="11" font-weight="400" font-style="normal" 
>
<polyline fill="none" vector-effect="none" points="60.5,45.5 60.5,432.5 618.5,432.5 618.5,45.5 60.5,45.5 " />
</g>

<g fill="none" stroke="#000000" stroke-opacity="1" stroke-width="1" stroke-linecap="square" stroke-linejoin="bevel" transform="matrix(1.00625,0,0,1.00625,0,0)"
font-family="Cantarell" font-size="11" font-weight="400" font-style="normal" 
>
</g>

<g fill="none" stroke="#000000" stroke-opacity="1" stroke-width="1" stroke-linecap="square" stroke-linejoin="bevel" transform="matrix(0,-1.00625,1.00625,0,15.5969,274.203)"
font-family="Cantarell" font-size="11" font-weight="400" font-style="normal" 
>
</g>

<g fill="none" stroke="#000000" stroke-opacity="1" stroke-width="1" stroke-linecap="square" stroke-linejoin="bevel" transform="matrix(0,-1.00625,1.00625,0,15.5969,274.203)"
font-family="Cantarell" font-size="11" font-weight="400" font-style="normal" 
>
</g>

<g fill="none" stroke="#000000" stroke-opacity="1" stroke-width="1" stroke-linecap="square" stroke-linejoin="bevel" transform="matrix(0,-1.00625,1.00625,0,15.5969,274.203)"
font-family="Cantarell" font-size="11" font-weight="400" font-style="normal" 
>
</g>

<g fill="none" stroke="#000000" stroke-opacity="1" stroke-width="1" stroke-linecap="square" stroke-linejoin="bevel" transform="matrix(0,-1.00625,1.00625,0,15.5969,274.203)"
font-family="Cantarell" font-size="11" font-weight="400" font-style="normal" 
>
</g>

<g fill="none" stroke="#000000" stroke-opacity="1" stroke-width="1" stroke-linecap="square" stroke-linejoin="bevel" transform="matrix(0,-1.00625,1.00625,0,15.5969,274.203)"
font-family="Cantarell" font-size="11" font-weight="400" font-style="normal" 
>
</g>

<g fill="none" stroke="#000000" stroke-opacity="1" stroke-width="1" stroke-linecap="square" stroke-linejoin="bevel" transform="matrix(0,-1.00625,1.00625,0,15.5969,274.203)"
font-family="Sans" font-size="9" font-weight="400" font-style="normal" 
>
<text fill="#000000" fill-opacity="1" stroke="none" xml:space="preserve" x="0" y="0" font-family="Sans" font-size="9" font-weight="400" font-style="normal" 
 >E (LJ-units)</text>
</g>

<g fill="none" stroke="#000000" stroke-opacity="1" stroke-width="1" stroke-linecap="square" stroke-linejoin="bevel" transform="matrix(0,-1.00625,1.00625,0,15.5969,274.203)"
font-family="Cantarell" font-size="11" font-weight="400" font-style="normal" 
>
</g>

<g fill="none" stroke="#000000" stroke-opacity="1" stroke-width="1" stroke-linecap="square" stroke-linejoin="bevel" transform="matrix(1.00625,0,0,1.00625,315.459,477.466)"
font-family="Cantarell" font-size="11" font-weight="400" font-style="normal" 
>
</g>

<g fill="none" stroke="#000000" stroke-opacity="1" stroke-width="1" stroke-linecap="square" stroke-linejoin="bevel" transform="matrix(1.00625,0,0,1.00625,315.459,477.466)"
font-family="Cantarell" font-size="11" font-weight="400" font-style="normal" 
>
</g>

<g fill="none" stroke="#000000" stroke-opacity="1" stroke-width="1" stroke-linecap="square" stroke-linejoin="bevel" transform="matrix(1.00625,0,0,1.00625,315.459,477.466)"
font-family="Cantarell" font-size="11" font-weight="400" font-style="normal" 
>
</g>

<g fill="none" stroke="#000000" stroke-opacity="1" stroke-width="1" stroke-linecap="square" stroke-linejoin="bevel" transform="matrix(1.00625,0,0,1.00625,315.459,477.466)"
font-family="Cantarell" font-size="11" font-weight="400" font-style="normal" 
>
</g>

<g fill="none" stroke="#000000" stroke-opacity="1" stroke-width="1" stroke-linecap="square" stroke-linejoin="bevel" transform="matrix(1.00625,0,0,1.00625,315.459,477.466)"
font-family="Cantarell" font-size="11" font-weight="400" font-style="normal" 
>
</g>

<g fill="none" stroke="#000000" stroke-opacity="1" stroke-width="1" stroke-linecap="square" stroke-linejoin="bevel" transform="matrix(1.00625,0,0,1.00625,315.459,477.466)"
font-family="Sans" font-size="9" font-weight="400" font-style="normal" 
>
<text fill="#000000" fill-opacity="1" stroke="none" xml:space="preserve" x="0" y="0" font-family="Sans" font-size="9" font-weight="400" font-style="normal" 
 >Timestep</text>
</g>

<g fill="none" stroke="#000000" stroke-opacity="1" stroke-width="1" stroke-linecap="square" stroke-linejoin="bevel" transform="matrix(1.00625,0,0,1.00625,315.459,477.466)"
font-family="Cantarell" font-size="11" font-weight="400" font-style="normal" 
>
</g>

<g fill="none" stroke="#000000" stroke-opacity="1" stroke-width="1" stroke-linecap="square" stroke-linejoin="bevel" transform="matrix(1.00625,0,0,1.00625,189.175,27.6719)"
font-family="Cantarell" font-size="11" font-weight="400" font-style="normal" 
>
</g>

<g fill="none" stroke="#000000" stroke-opacity="1" stroke-width="1" stroke-linecap="square" stroke-linejoin="bevel" transform="matrix(1.00625,0,0,1.00625,189.175,27.6719)"
font-family="Cantarell" font-size="11" font-weight="400" font-style="normal" 
>
</g>

<g fill="none" stroke="#000000" stroke-opacity="1" stroke-width="1" stroke-linecap="square" stroke-linejoin="bevel" transform="matrix(1.00625,0,0,1.00625,189.175,27.6719)"
font-family="Cantarell" font-size="11" font-weight="400" font-style="normal" 
>
</g>

<g fill="none" stroke="#000000" stroke-opacity="1" stroke-width="1" stroke-linecap="square" stroke-linejoin="bevel" transform="matrix(1.00625,0,0,1.00625,189.175,27.6719)"
font-family="Cantarell" font-size="11" font-weight="400" font-style="normal" 
>
</g>

<g fill="none" stroke="#000000" stroke-opacity="1" stroke-width="1" stroke-linecap="square" stroke-linejoin="bevel" transform="matrix(1.00625,0,0,1.00625,189.175,27.6719)"
font-family="Cantarell" font-size="11" font-weight="400" font-style="normal" 
>
</g>

<g fill="none" stroke="#000000" stroke-opacity="1" stroke-width="1" stroke-linecap="square" stroke-linejoin="bevel" transform="matrix(1.00625,0,0,1.00625,189.175,27.6719)"
font-family="Sans" font-size="9" font-weight="400" font-style="normal" 
>
<text fill="#000000" fill-opacity="1" stroke="none" xml:space="preserve" x="0" y="0" font-family="Sans" font-size="9" font-weight="400" font-style="normal" 
 >Kinetic vs potential energy for LJ fluid under shear</text>
</g>

<g fill="none" stroke="#000000" stroke-opacity="1" stroke-width="1" stroke-linecap="square" stroke-linejoin="bevel" transform="matrix(1.00625,0,0,1.00625,189.175,27.6719)"
font-family="Cantarell" font-size="11" font-weight="400" font-style="normal" 
>
</g>

<g fill="none" stroke="#000000" stroke-opacity="1" stroke-width="1" stroke-linecap="square" stroke-linejoin="bevel" transform="matrix(1.00625,0,0,1.00625,479.981,63.8969)"
font-family="Cantarell" font-size="11" font-weight="400" font-style="normal" 
>
</g>

<g fill="none" stroke="#000000" stroke-opacity="1" stroke-width="1" stroke-linecap="square" stroke-linejoin="bevel" transform="matrix(1.00625,0,0,1.00625,479.981,63.8969)"
font-family="Cantarell" font-size="11" font-weight="400" font-style="normal" 
>
</g>

<g fill="none" stroke="#000000" stroke-opacity="1" stroke-width="1" stroke-linecap="square" stroke-linejoin="bevel" transform="matrix(1.00625,0,0,1.00625,479.981,63.8969)"
font-family="Cantarell" font-size="11" font-weight="400" font-style="normal" 
>
</g>

<g fill="none" stroke="#000000" stroke-opacity="1" stroke-width="1" stroke-linecap="square" stroke-linejoin="bevel" transform="matrix(1.00625,0,0,1.00625,479.981,63.8969)"
font-family="Cantarell" font-size="11" font-weight="400" font-style="normal" 
>
</g>

<g fill="none" stroke="#000000" stroke-opacity="1" stroke-width="1" stroke-linecap="square" stroke-linejoin="bevel" transform="matrix(1.00625,0,0,1.00625,479.981,63.8969)"
font-family="Cantarell" font-size="11" font-weight="400" font-style="normal" 
>
</g>

<g fill="none" stroke="#000000" stroke-opacity="1" stroke-width="1" stroke-linecap="square" stroke-linejoin="bevel" transform="matrix(1.00625,0,0,1.00625,479.981,63.8969)"
font-family="Sans" font-size="9" font-weight="400" font-style="normal" 
>
<text fill="#000000" fill-opacity="1" stroke="none" xml:space="preserve" x="0" y="0" font-family="Sans" font-size="9" font-weight="400" font-style="normal" 
 >Kinetic energy</text>
</g>

<g fill="none" stroke="#000000" stroke-opacity="1" stroke-width="1" stroke-linecap="square" stroke-linejoin="bevel" transform="matrix(1.00625,0,0,1.00625,479.981,63.8969)"
font-family="Cantarell" font-size="11" font-weight="400" font-style="normal" 
>
</g>

<g fill="none" stroke="#000000" stroke-opacity="1" stroke-width="1" stroke-linecap="square" stroke-linejoin="bevel" transform="matrix(1.00625,0,0,1.00625,0,0)"
font-family="Cantarell" font-size="11" font-weight="400" font-style="normal" 
>
</g>

<g fill="none" stroke="#000000" stroke-opacity="1" stroke-width="2.4" stroke-linecap="round" stroke-linejoin="round" transform="matrix(1.00625,0,0,1.00625,0,0)"
font-family="Cantarell" font-size="11" font-weight="400" font-style="normal" 
>
<path vector-effect="none" fill-rule="evenodd" d="M570.5,58.5 L604.5,58.5"/>
</g>

<g fill="none" stroke="#000000" stroke-opacity="1" stroke-width="1" stroke-linecap="square" stroke-linejoin="bevel" transform="matrix(1.00625,0,0,1.00625,0,0)"
font-family="Cantarell" font-size="11" font-weight="400" font-style="normal" 
>
</g>

<g fill="none" stroke="#000000" stroke-opacity="1" stroke-width="1" stroke-linecap="square" stroke-linejoin="bevel" transform="matrix(1.00625,0,0,1.00625,0,0)"
font-family="Cantarell" font-size="11" font-weight="400" font-style="normal" 
>
</g>

<g fill="none" stroke="#000000" stroke-opacity="1" stroke-width="1" stroke-linecap="square" stroke-linejoin="bevel" transform="matrix(1.00625,0,0,1.00625,0,0)"
font-family="Cantarell" font-size="11" font-weight="400" font-style="normal" 
>
</g>

<g fill="none" stroke="#000000" stroke-opacity="1" stroke-width="1" stroke-linecap="square" stroke-linejoin="bevel" transform="matrix(1.00625,0,0,1.00625,0,0)"
font-family="Cantarell" font-size="11" font-weight="400" font-style="normal" 
>
</g>

<g fill="none" stroke="#000000" stroke-opacity="1" stroke-width="2.4" stroke-linecap="round" stroke-linejoin="round" transform="matrix(1.00625,0,0,1.00625,0,0)"
font-family="Cantarell" font-size="11" font-weight="400" font-style="normal" 
>
<polyline fill="none" vector-effect="none" points="60.5,97.9 60.5,97.9 61.1,97.9 61.6,97.9 62.2,97.9 62.7,97.9 63.3,98 63.9,98 64.4,98.1 65,98.5 65.5,100.3 66.1,104.7 66.6,112.8 67.2,125.1 67.8,140.8 68.3,157.9 68.9,174 69.4,186.7 70,194.6 70.6,197.2 71.1,194.7 71.7,188.7 72.2,181.5 72.8,174.6 73.3,169.3 73.9,166.1 74.5,165 75,165.5 75.6,166.9 76.1,168.6 76.7,170.2 77.3,171.6 77.8,173 78.4,174.2 78.9,175.1 79.5,175.4 80,175 80.6,173.8 81.2,171.9 81.7,169.7 82.3,167.6 82.8,166.2 83.4,165.5 84,165.5 84.5,166.1 85.1,166.8 85.6,167.2 86.2,167.1 86.7,166.5 87.3,165.7 87.9,165.2 88.4,165.1 89,165.7 89.5,166.8 90.1,168.3 90.7,169.7 91.2,170.8 91.8,171.4 92.3,171.1 92.9,170.2 93.4,168.8 94,167.4 94.6,166.4 95.1,166.4 95.7,167.3 96.2,168.8 96.8,170.5 97.4,172 97.9,172.7 98.5,172.6 99,171.8 99.6,170.6 100.1,169.3 100.7,168.3 101.3,167.9 101.8,168.2 102.4,169.1 102.9,170.4 103.5,171.8 104.1,173 104.6,173.8 105.2,173.8 105.7,173.2 106.3,172.3 106.8,171.1 107.4,170.1 108,169.5 108.5,169.6 109.1,170.1 109.6,171 110.2,172.2 110.8,173.4 111.3,174.5 111.9,175.7 112.4,176.5 113,176.6 113.5,175.9 114.1,175.1 114.7,174.2 115.2,173.4 115.8,173.3 116.3,174.1 116.9,175.7 117.5,177.6 118,179.4 118.6,180.5 119.1,180.7 119.7,180.1 120.2,178.7 120.8,177 121.4,175.6 121.9,174.6 122.5,174.5 123,175 123.6,175.9 124.2,176.8 124.7,177.5 125.3,177.9 125.8,177.9 126.4,177.7 126.9,177.3 127.5,176.9 128.1,176.4 128.6,176.2 129.2,176.3 129.7,176.9 130.3,177.6 130.9,178.3 131.4,178.8 132,179.1 132.5,179.4 133.1,179.3 133.7,179.3 134.2,179.3 134.8,179.7 135.3,180.4 135.9,181.2 136.4,181.8 137,182.2 137.6,182.2 138.1,182 138.7,181.3 139.2,180.4 139.8,179.7 140.4,179.5 140.9,179.9 141.5,180.6 142,181.3 142.6,181.8 143.1,182 143.7,182.1 144.3,182.4 144.8,182.8 145.4,183 145.9,183.1 146.5,183.4 147.1,184.2 147.6,185.6 148.2,186.9 148.7,187.8 149.3,188.1 149.8,187.9 150.4,187.1 151,185.9 151.5,184.8 152.1,184 152.6,184.1 153.2,184.7 153.8,185.6 154.3,186.7 154.9,187.7 155.4,188.5 156,188.8 156.5,188.6 157.1,188.2 157.7,187.8 158.2,187.8 158.8,188.3 159.3,188.8 159.9,189.1 160.5,189.3 161,189.7 161.6,190.1 162.1,190.4 162.7,190.6 163.2,190.5 163.8,190.3 164.4,190 164.9,189.6 165.5,189.2 166,189 166.6,188.8 167.2,188.6 167.7,188.5 168.3,188.4 168.8,188 169.4,187.9 169.9,188 170.5,188.2 171.1,188.7 171.6,189.7 172.2,191.1 172.7,192.9 173.3,194.8 173.9,196.6 174.4,197.8 175,198 175.5,197.5 176.1,196.6 176.6,195.5 177.2,194.3 177.8,193.4 178.3,193 178.9,193 179.4,193.5 180,194.4 180.6,195.4 181.1,196.2 181.7,196.6 182.2,197 182.8,197.3 183.3,197.3 183.9,197 184.5,196.6 185,196.3 185.6,196 186.1,195.9 186.7,196 187.3,196.1 187.8,196.4 188.4,196.8 188.9,197 189.5,197.3 190,197.4 190.6,197.5 191.2,197.7 191.7,198.1 192.3,198.9 192.8,199.6 193.4,200 194,199.9 194.5,199.6 195.1,199.2 195.6,199 196.2,199.6 196.7,200.6 197.3,202 197.9,203.7 198.4,205.4 199,206.5 199.5,206.8 200.1,206.7 200.7,206.5 201.2,206.3 201.8,206.3 202.3,206.6 202.9,207 203.5,207.2 204,207 204.6,206.4 205.1,205.6 205.7,204.5 206.2,203.3 206.8,202.6 207.4,202.4 207.9,202.4 208.5,202.6 209,202.9 209.6,202.8 210.2,202.5 210.7,202.2 211.3,202.2 211.8,202.5 212.4,203.1 212.9,204 213.5,205 214.1,206 214.6,206.8 215.2,207.6 215.7,208.3 216.3,208.8 216.9,209.1 217.4,209 218,208.5 218.5,207.6 219.1,206.4 219.6,205 220.2,203.9 220.8,203 221.3,203 221.9,203.6 222.4,204.6 223,205.9 223.6,207.1 224.1,208.3 224.7,209 225.2,209.2 225.8,209.2 226.3,208.9 226.9,208.6 227.5,208.3 228,207.9 228.6,207.9 229.1,208.2 229.7,208.6 230.3,209.3 230.8,209.7 231.4,209.7 231.9,209.5 232.5,209.3 233,209.2 233.6,209.3 234.2,209.8 234.7,210.9 235.3,212.2 235.8,213.2 236.4,214.1 237,215 237.5,215.7 238.1,215.7 238.6,215.1 239.2,214.1 239.7,213 240.3,212.1 240.9,211.7 241.4,211.8 242,212.4 242.5,213.4 243.1,214.6 243.7,215.8 244.2,216 244.8,215.8 245.3,215.4 245.9,214.8 246.4,214.1 247,213.6 247.6,213.4 248.1,213.4 248.7,213.4 249.2,213.6 249.8,214.2 250.4,215 250.9,215.9 251.5,216.8 252,217.6 252.6,218.2 253.1,218.3 253.7,217.9 254.3,217.3 254.8,216.6 255.4,215.7 255.9,215.4 256.5,215.7 257.1,216.7 257.6,217.8 258.2,218.7 258.7,219.4 259.3,219.9 259.8,220 260.4,219.4 261,218.6 261.5,217.8 262.1,217.1 262.6,217 263.2,217.5 263.8,217.8 264.3,218.1 264.9,218.5 265.4,218.7 266,218.8 266.5,219 267.1,219.1 267.7,219.1 268.2,219.6 268.8,220.2 269.3,220.9 269.9,221.6 270.5,221.9 271,222 271.6,222.1 272.1,222 272.7,221.6 273.3,221.1 273.8,220.8 274.4,220.8 274.9,221 275.5,221.2 276,221.2 276.6,221 277.2,220.9 277.7,220.9 278.3,221.2 278.8,221.6 279.4,222.2 280,223.1 280.5,224.2 281.1,225.3 281.6,225.8 282.2,225.8 282.7,225.5 283.3,225.2 283.9,225.2 284.4,225.6 285,226.3 285.5,227 286.1,227.8 286.7,228.4 287.2,228.3 287.8,227.7 288.3,226.7 288.9,225.7 289.4,225.1 290,224.8 290.6,224.9 291.1,225.2 291.7,225.5 292.2,225.6 292.8,225.2 293.4,224.6 293.9,223.6 294.5,222.4 295,221.5 295.6,221.1 296.1,221.3 296.7,221.8 297.3,222.6 297.8,223.5 298.4,224.2 298.9,225 299.5,225.6 300.1,225.9 300.6,226.2 301.2,226.5 301.7,226.9 302.3,227.3 302.8,227.9 303.4,228.4 304,228.6 304.5,228.4 305.1,227.7 305.6,226.8 306.2,225.9 306.8,225.3 307.3,225.1 307.9,225.6 308.4,226.7 309,227.8 309.5,229.1 310.1,230.2 310.7,230.4 311.2,230.2 311.8,229.5 312.3,228.6 312.9,227.7 313.5,227 314,226.8 314.6,226.8 315.1,227 315.7,227.2 316.2,227.4 316.8,227.7 317.4,227.9 317.9,227.7 318.5,227.6 319,227.6 319.6,227.8 320.2,228.3 320.7,229 321.3,229.5 321.8,229.5 322.4,229.3 322.9,228.7 323.5,227.9 324.1,227.1 324.6,226.4 325.2,226 325.7,225.8 326.3,225.5 326.9,225.2 327.4,224.9 328,224.6 328.5,224.6 329.1,225.1 329.6,226.1 330.2,227.5 330.8,229 331.3,230.3 331.9,231.2 332.4,231.7 333,231.7 333.6,231.1 334.1,230.1 334.7,229.1 335.2,228.3 335.8,227.8 336.3,227.4 336.9,226.8 337.5,226.4 338,226.1 338.6,225.9 339.1,226.1 339.7,226.7 340.3,227.6 340.8,228.7 341.4,229.7 341.9,230.4 342.5,230.7 343.1,230.6 343.6,230.1 344.2,229.4 344.7,228.9 345.3,228.6 345.8,228.4 346.4,228.1 347,227.4 347.5,226.6 348.1,225.9 348.6,225.6 349.2,225.6 349.8,226.1 350.3,226.9 350.9,227.7 351.4,228.4 352,228.9 352.5,229 353.1,229 353.7,228.5 354.2,227.8 354.8,227 355.3,226.5 355.9,226.2 356.5,226.4 357,226.9 357.6,227.5 358.1,228.2 358.7,228.7 359.2,229.1 359.8,229.7 360.4,230.5 360.9,231.3 361.5,231.7 362,231.8 362.6,231.6 363.2,231.1 363.7,230.3 364.3,228.9 364.8,227.6 365.4,226.7 365.9,226.2 366.5,225.9 367.1,226.1 367.6,226.6 368.2,227 368.7,226.9 369.3,226.7 369.9,226.3 370.4,225.9 371,225.5 371.5,225.2 372.1,225.1 372.6,225.1 373.2,225.2 373.8,225.2 374.3,224.9 374.9,224.6 375.4,224.5 376,224.3 376.6,224 377.1,223.7 377.7,223.3 378.2,223.1 378.8,223 379.3,222.8 379.9,222.6 380.5,222.4 381,222.1 381.6,222 382.1,222.1 382.7,222.3 383.3,222.6 383.8,223 384.4,223.5 384.9,224.1 385.5,224.6 386,224.8 386.6,224.5 387.2,224 387.7,223.6 388.3,223.4 388.8,223.1 389.4,223.1 390,223.5 390.5,224.3 391.1,225.4 391.6,226.4 392.2,226.9 392.7,227 393.3,226.9 393.9,226.5 394.4,225.8 395,225.2 395.5,224.4 396.1,223.5 396.7,222.8 397.2,222.1 397.8,221.4 398.3,220.8 398.9,220.4 399.4,220 400,219.8 400.6,219.8 401.1,220.1 401.7,220.5 402.2,220.6 402.8,220.6 403.4,220.8 403.9,221 404.5,221.2 405,221.6 405.6,221.7 406.1,221.3 406.7,220.9 407.3,220.3 407.8,219.8 408.4,219.7 408.9,220.3 409.5,221.2 410.1,221.8 410.6,222.3 411.2,222.6 411.7,222.7 412.3,222.3 412.9,221.5 413.4,220.9 414,220.5 414.5,220.1 415.1,219.9 415.6,220.1 416.2,220.1 416.8,219.9 417.3,219.4 417.9,218.7 418.4,217.9 419,216.9 419.6,216 420.1,215.3 420.7,215 421.2,214.9 421.8,215.2 422.3,215.8 422.9,216.3 423.5,217 424,217.5 424.6,217.7 425.1,217.5 425.7,217.1 426.3,216.8 426.8,216.5 427.4,216.1 427.9,216 428.5,216.2 429,216.4 429.6,216.7 430.2,216.9 430.7,217.1 431.3,217.1 431.8,217.2 432.4,217.3 433,217.2 433.5,217 434.1,216.9 434.6,216.9 435.2,217.1 435.7,217.3 436.3,217 436.9,216.2 437.4,215.1 438,214 438.5,213.2 439.1,212.5 439.7,212 440.2,211.8 440.8,212.2 441.3,213.2 441.9,214.3 442.4,215.3 443,216.2 443.6,216.5 444.1,216.6 444.7,216.5 445.2,216.3 445.8,215.9 446.4,215.5 446.9,215.1 447.5,214.7 448,214.3 448.6,213.8 449.1,213.1 449.7,212.3 450.3,211.8 450.8,211.6 451.4,211.6 451.9,211.7 452.5,211.6 453.1,211.1 453.6,210.5 454.2,209.8 454.7,208.9 455.3,208.3 455.8,208.2 456.4,208.6 457,209.1 457.5,209.6 458.1,210 458.6,210.4 459.2,210.4 459.8,210.2 460.3,209.8 460.9,209.4 461.4,208.8 462,208.1 462.5,207.4 463.1,206.9 463.7,206.7 464.2,206.6 464.8,206.7 465.3,206.8 465.9,206.8 466.5,206.8 467,206.7 467.6,206.5 468.1,206.5 468.7,206.8 469.2,207.5 469.8,208.5 470.4,209.5 470.9,210.1 471.5,210.1 472,209.4 472.6,208.5 473.2,207.4 473.7,206.3 474.3,205.3 474.8,204.2 475.4,203.6 475.9,203.3 476.5,203.6 477.1,204.3 477.6,205.1 478.2,205.9 478.7,206.3 479.3,206.1 479.9,205.4 480.4,204.6 481,203.8 481.5,203 482.1,202.8 482.7,203 483.2,203.3 483.8,203.8 484.3,204.5 484.9,205.3 485.4,205.9 486,205.8 486.6,205.2 487.1,204.3 487.7,203 488.2,201.4 488.8,200 489.4,199.4 489.9,199.2 490.5,199.1 491,199.2 491.6,199.3 492.1,199.6 492.7,200.2 493.3,200.6 493.8,200.6 494.4,200.1 494.9,199.5 495.5,199.2 496.1,199.1 496.6,199.2 497.2,199.5 497.7,199.8 498.3,199.6 498.8,199.1 499.4,198.2 500,197.3 500.5,196.7 501.1,196.5 501.6,196.6 502.2,196.8 502.8,197 503.3,197 503.9,196.6 504.4,195.9 505,195.2 505.5,194.5 506.1,193.5 506.7,192.4 507.2,191.2 507.8,190.3 508.3,189.8 508.9,190.1 509.5,190.9 510,192.1 510.6,193.1 511.1,193.9 511.7,194.2 512.2,194.2 512.8,193.7 513.4,193.2 513.9,193 514.5,192.9 515,192.9 515.6,192.6 516.2,192.1 516.7,191.6 517.3,191.1 517.8,190.5 518.4,190 518.9,189.5 519.5,188.9 520.1,188.4 520.6,188 521.2,187.7 521.7,187.5 522.3,187.7 522.9,188.5 523.4,189.4 524,190.1 524.5,191 525.1,191.5 525.6,191.6 526.2,191.5 526.8,191.4 527.3,191.4 527.9,191.7 528.4,192 529,192.2 529.6,192.1 530.1,191.7 530.7,190.7 531.2,189.5 531.8,188.3 532.3,187 532.9,185.8 533.5,184.7 534,183.7 534.6,183.1 535.1,183 535.7,183.3 536.3,183.9 536.8,184.8 537.4,185.7 537.9,186.2 538.5,186.3 539,185.9 539.6,185.6 540.2,185.6 540.7,185.8 541.3,186.2 541.8,186.4 542.4,186.2 543,185.4 543.5,184.2 544.1,182.6 544.6,181.2 545.2,180.4 545.7,180.2 546.3,180.5 546.9,181.2 547.4,182 548,182.4 548.5,182.5 549.1,182.1 549.7,181.3 550.2,180.7 550.8,180.3 551.3,180.2 551.9,180.7 552.5,181.6 553,182.7 553.6,183.4 554.1,183.5 554.7,182.8 555.2,182 555.8,180.9 556.4,179.7 556.9,178.6 557.5,177.8 558,177.4 558.6,177.3 559.2,177.3 559.7,177.3 560.3,177.1 560.8,176.8 561.4,176.7 561.9,176.6 562.5,176.7 563.1,177 563.6,177.6 564.2,178.2 564.7,178.7 565.3,179.2 565.9,179.7 566.4,180.2 567,180.9 567.5,181.5 568.1,181.8 568.6,181.7 569.2,181.3 569.8,180.4 570.3,179.3 570.9,178.4 571.4,177.8 572,177.5 572.6,177.4 573.1,177.8 573.7,178.2 574.2,178.3 574.8,178 575.3,177 575.9,175.4 576.5,173.8 577,172.6 577.6,172.3 578.1,172.7 578.7,173.6 579.3,175.2 579.8,177 580.4,178.3 580.9,178.7 581.5,178.4 582,178 582.6,177.9 583.2,177.9 583.7,177.7 584.3,177.4 584.8,177.2 585.4,176.9 586,176.5 586.5,175.8 587.1,174.9 587.6,174 588.2,173.1 588.7,172.4 589.3,171.9 589.9,172 590.4,172.3 591,172.8 591.5,173.6 592.1,174.3 592.7,174.7 593.2,174.5 593.8,174.1 594.3,173.9 594.9,173.8 595.4,173.7 596,173.7 596.6,174 597.1,174.4 597.7,175 598.2,175.4 598.8,175.3 599.4,174.8 599.9,173.7 600.5,172.4 601,171.1 601.6,170 602.1,169.3 602.7,169.2 603.3,169.6 603.8,170.1 604.4,170.7 604.9,171 605.5,171.1 606.1,171.3 606.6,171.4 607.2,171.5 607.7,171.3 608.3,170.8 608.8,170.1 609.4,169.5 610,168.7 610.5,168.1 611.1,167.9 611.6,168 612.2,168.1 612.8,168.6 613.3,169.3 613.9,170.2 614.4,171.3 615,172.5 615.5,173.4 616.1,174 616.7,173.9 617.2,173.6 617.8,173.5 618.3,173.2 618.9,172.4 " />
</g>

<g fill="none" stroke="#000000" stroke-opacity="1" stroke-width="1" stroke-linecap="square" stroke-linejoin="bevel" transform="matrix(1.00625,0,0,1.00625,0,0)"
font-family="Cantarell" font-size="11" font-weight="400" font-style="normal" 
>
</g>

<g fill="none" stroke="#000000" stroke-opacity="1" stroke-width="1" stroke-linecap="square" stroke-linejoin="bevel" transform="matrix(1.00625,0,0,1.00625,468.913,78.9906)"
font-family="Cantarell" font-size="11" font-weight="400" font-style="normal" 
>
</g>

<g fill="none" stroke="#000000" stroke-opacity="1" stroke-width="1" stroke-linecap="square" stroke-linejoin="bevel" transform="matrix(1.00625,0,0,1.00625,468.913,78.9906)"
font-family="Cantarell" font-size="11" font-weight="400" font-style="normal" 
>
</g>

<g fill="none" stroke="#000000" stroke-opacity="1" stroke-width="1" stroke-linecap="square" stroke-linejoin="bevel" transform="matrix(1.00625,0,0,1.00625,468.913,78.9906)"
font-family="Cantarell" font-size="11" font-weight="400" font-style="normal" 
>
</g>

<g fill="none" stroke="#000000" stroke-opacity="1" stroke-width="1" stroke-linecap="square" stroke-linejoin="bevel" transform="matrix(1.00625,0,0,1.00625,468.913,78.9906)"
font-family="Cantarell" font-size="11" font-weight="400" font-style="normal" 
>
</g>

<g fill="none" stroke="#000000" stroke-opacity="1" stroke-width="1" stroke-linecap="square" stroke-linejoin="bevel" transform="matrix(1.00625,0,0,1.00625,468.913,78.9906)"
font-family="Cantarell" font-size="11" font-weight="400" font-style="normal" 
>
</g>

<g fill="none" stroke="#000000" stroke-opacity="1" stroke-width="1" stroke-linecap="square" stroke-linejoin="bevel" transform="matrix(1.00625,0,0,1.00625,468.913,78.9906)"
font-family="Sans" font-size="9" font-weight="400" font-style="normal" 
>
<text fill="#000000" fill-opacity="1" stroke="none" xml:space="preserve" x="0" y="0" font-family="Sans" font-size="9" font-weight="400" font-style="normal" 
 >Potential energy</text>
</g>

<g fill="none" stroke="#000000" stroke-opacity="1" stroke-width="1" stroke-linecap="square" stroke-linejoin="bevel" transform="matrix(1.00625,0,0,1.00625,468.913,78.9906)"
font-family="Cantarell" font-size="11" font-weight="400" font-style="normal" 
>
</g>

<g fill="none" stroke="#000000" stroke-opacity="1" stroke-width="1" stroke-linecap="square" stroke-linejoin="bevel" transform="matrix(1.00625,0,0,1.00625,0,0)"
font-family="Cantarell" font-size="11" font-weight="400" font-style="normal" 
>
</g>

<g fill="none" stroke="#e69f00" stroke-opacity="1" stroke-width="2.4" stroke-linecap="round" stroke-linejoin="round" transform="matrix(1.00625,0,0,1.00625,0,0)"
font-family="Cantarell" font-size="11" font-weight="400" font-style="normal" 
>
<path vector-effect="none" fill-rule="evenodd" d="M570.5,73.5 L604.5,73.5"/>
</g>

<g fill="none" stroke="#000000" stroke-opacity="1" stroke-width="1" stroke-linecap="square" stroke-linejoin="bevel" transform="matrix(1.00625,0,0,1.00625,0,0)"
font-family="Cantarell" font-size="11" font-weight="400" font-style="normal" 
>
</g>

<g fill="none" stroke="#000000" stroke-opacity="1" stroke-width="1" stroke-linecap="square" stroke-linejoin="bevel" transform="matrix(1.00625,0,0,1.00625,0,0)"
font-family="Cantarell" font-size="11" font-weight="400" font-style="normal" 
>
</g>

<g fill="none" stroke="#000000" stroke-opacity="1" stroke-width="1" stroke-linecap="square" stroke-linejoin="bevel" transform="matrix(1.00625,0,0,1.00625,0,0)"
font-family="Cantarell" font-size="11" font-weight="400" font-style="normal" 
>
</g>

<g fill="none" stroke="#000000" stroke-opacity="1" stroke-width="1" stroke-linecap="square" stroke-linejoin="bevel" transform="matrix(1.00625,0,0,1.00625,0,0)"
font-family="Cantarell" font-size="11" font-weight="400" font-style="normal" 
>
</g>

<g fill="none" stroke="#e69f00" stroke-opacity="1" stroke-width="2.4" stroke-linecap="round" stroke-linejoin="round" transform="matrix(1.00625,0,0,1.00625,0,0)"
font-family="Cantarell" font-size="11" font-weight="400" font-style="normal" 
>
<polyline fill="none" vector-effect="none" points="60.5,432 60.5,432 61.1,432 61.6,432 62.2,432 62.7,432 63.3,432 63.9,432 64.4,432 65,431.8 65.5,430 66.1,425.7 66.6,417.8 67.2,405.6 67.8,390.1 68.3,373 68.9,356.9 69.4,344.2 70,336.3 70.6,333.8 71.1,336.4 71.7,342.7 72.2,350.2 72.8,357 73.3,362.5 73.9,365.7 74.5,366.9 75,366.4 75.6,364.9 76.1,363.3 76.7,361.8 77.3,360.4 77.8,359.1 78.4,358 78.9,357.2 79.5,357 80,357.5 80.6,358.8 81.2,360.8 81.7,363.1 82.3,365.2 82.8,366.9 83.4,367.5 84,367.5 84.5,366.9 85.1,366.2 85.6,365.7 86.2,366 86.7,366.6 87.3,367.5 87.9,368.1 88.4,368.2 89,367.6 89.5,366.7 90.1,365.2 90.7,363.8 91.2,362.8 91.8,362.3 92.3,362.4 92.9,363.6 93.4,365.1 94,366.7 94.6,367.8 95.1,367.9 95.7,367.1 96.2,365.7 96.8,363.9 97.4,362.4 97.9,361.9 98.5,362.2 99,363.1 99.6,364.6 100.1,366 100.7,367.1 101.3,367.7 101.8,367.5 102.4,366.7 102.9,365.5 103.5,364.1 104.1,362.9 104.6,362.3 105.2,362.5 105.7,363.2 106.3,364.3 106.8,365.5 107.4,366.7 108,367.3 108.5,367.5 109.1,367.3 109.6,366.5 110.2,365.5 110.8,364.4 111.3,363.3 111.9,362.3 112.4,361.7 113,361.8 113.5,362.6 114.1,363.8 114.7,364.9 115.2,365.9 115.8,366 116.3,365.4 116.9,364 117.5,362.4 118,360.7 118.6,359.7 119.1,359.8 119.7,360.6 120.2,362.3 120.8,364.3 121.4,365.9 121.9,367.1 122.5,367.4 123,366.9 123.6,366.3 124.2,365.7 124.7,365.2 125.3,364.9 125.8,365.1 126.4,365.5 126.9,366 127.5,366.7 128.1,367.4 128.6,367.7 129.2,367.7 129.7,367.3 130.3,366.8 130.9,366.3 131.4,365.9 132,365.7 132.5,365.5 133.1,365.8 133.7,366 134.2,366.2 134.8,366.2 135.3,365.8 135.9,365 136.4,364.6 137,364.5 137.6,364.7 138.1,365.3 138.7,366 139.2,367.2 139.8,368.1 140.4,368.4 140.9,368.3 141.5,368 142,367.6 142.6,367.4 143.1,367.5 143.7,367.5 144.3,367.5 144.8,367.4 145.4,367.5 145.9,367.5 146.5,367.4 147.1,366.8 147.6,365.6 148.2,364.4 148.7,363.6 149.3,363.5 149.8,364.1 150.4,365.1 151,366.4 151.5,367.9 152.1,368.8 152.6,368.9 153.2,368.5 153.8,367.7 154.3,366.8 154.9,365.9 155.4,365.2 156,365.1 156.5,365.6 157.1,366.3 157.7,366.9 158.2,367.1 158.8,367 159.3,366.8 159.9,366.7 160.5,366.7 161,366.5 161.6,366.3 162.1,366.3 162.7,366.4 163.2,366.6 163.8,367 164.4,367.6 164.9,368.3 165.5,368.9 166,369.4 166.6,369.9 167.2,370.4 167.7,370.7 168.3,371.1 168.8,371.6 169.4,371.9 169.9,371.8 170.5,372 171.1,371.7 171.6,370.9 172.2,369.7 172.7,368.3 173.3,366.5 173.9,365.2 174.4,364.3 175,364.3 175.5,364.9 176.1,366 176.6,367.4 177.2,368.9 177.8,370.1 178.3,370.7 178.9,371 179.4,370.8 180,370.2 180.6,369.4 181.1,368.8 181.7,368.7 182.2,368.4 182.8,368.4 183.3,368.6 183.9,369.1 184.5,369.8 185,370.4 185.6,371 186.1,371.4 186.7,371.7 187.3,371.7 187.8,371.6 188.4,371.4 188.9,371.5 189.5,371.4 190,371.6 190.6,371.8 191.2,371.9 191.7,371.7 192.3,371.3 192.8,371.1 193.4,370.9 194,371.2 194.5,371.7 195.1,372.4 195.6,372.8 196.2,372.3 196.7,371.4 197.3,370.3 197.9,368.8 198.4,367.6 199,366.6 199.5,366.5 200.1,367 200.7,367.5 201.2,367.9 201.8,368.1 202.3,368.3 202.9,368.1 203.5,368.2 204,368.7 204.6,369.5 205.1,370.6 205.7,372 206.2,373.5 206.8,374.5 207.4,375 207.9,375.3 208.5,375.3 209,375.3 209.6,375.6 210.2,376.2 210.7,376.7 211.3,376.9 211.8,376.9 212.4,376.5 212.9,375.7 213.5,374.9 214.1,374.3 214.6,373.7 215.2,373.3 215.7,372.9 216.3,372.6 216.9,372.5 217.4,372.8 218,373.6 218.5,374.7 219.1,376.2 219.6,377.9 220.2,379.2 220.8,380.4 221.3,380.6 221.9,380.3 222.4,379.5 223,378.5 223.6,377.3 224.1,376.6 224.7,376.2 225.2,376.2 225.8,376.4 226.3,376.8 226.9,377.3 227.5,377.9 228,378.3 228.6,378.5 229.1,378.5 229.7,378.1 230.3,377.8 230.8,377.5 231.4,377.5 231.9,378 232.5,378.5 233,378.8 233.6,378.8 234.2,378.5 234.7,377.6 235.3,376.4 235.8,375.5 236.4,374.8 237,374 237.5,373.5 238.1,373.7 238.6,374.5 239.2,375.8 239.7,377.2 240.3,378.2 240.9,378.9 241.4,378.9 242,378.4 242.5,377.6 243.1,376.4 243.7,375.6 244.2,375.5 244.8,375.9 245.3,376.5 245.9,377.3 246.4,378.2 247,379 247.6,379.4 248.1,379.6 248.7,379.7 249.2,379.6 249.8,379.3 250.4,378.8 250.9,378 251.5,377.3 252,376.8 252.6,376.4 253.1,376.4 253.7,377 254.3,377.8 254.8,378.8 255.4,379.9 255.9,380.5 256.5,380.4 257.1,379.7 257.6,378.8 258.2,378.1 258.7,377.4 259.3,376.9 259.8,377.2 260.4,378 261,378.9 261.5,380.1 262.1,380.8 262.6,381.1 263.2,381 263.8,380.9 264.3,380.8 264.9,380.7 265.4,380.7 266,380.7 266.5,380.6 267.1,380.8 267.7,380.9 268.2,380.7 268.8,380.2 269.3,379.7 269.9,379.1 270.5,378.9 271,378.8 271.6,378.9 272.1,379.3 272.7,379.9 273.3,380.6 273.8,381.1 274.4,381.1 274.9,381 275.5,381 276,381.1 276.6,381.4 277.2,381.6 277.7,381.7 278.3,381.7 278.8,381.5 279.4,381 280,380.2 280.5,379.1 281.1,378.1 281.6,377.7 282.2,377.7 282.7,378 283.3,378.5 283.9,378.7 284.4,378.4 285,377.8 285.5,377.1 286.1,376.3 286.7,375.8 287.2,375.9 287.8,376.6 288.3,377.8 288.9,378.8 289.4,379.5 290,379.8 290.6,379.9 291.1,379.6 291.7,379.4 292.2,379.4 292.8,379.9 293.4,380.7 293.9,381.7 294.5,383 295,384 295.6,384.5 296.1,384.6 296.7,384.1 297.3,383.1 297.8,382.4 298.4,381.8 298.9,381.1 299.5,380.6 300.1,380.4 300.6,380.3 301.2,380 301.7,379.7 302.3,379.4 302.8,378.9 303.4,378.6 304,378.6 304.5,378.9 305.1,379.7 305.6,380.8 306.2,381.8 306.8,382.4 307.3,382.7 307.9,382.2 308.4,381.3 309,380.2 309.5,379.1 310.1,378.1 310.7,377.8 311.2,378.1 311.8,378.7 312.3,379.6 312.9,380.6 313.5,381.2 314,381.6 314.6,381.8 315.1,381.7 315.7,381.5 316.2,381.3 316.8,381.1 317.4,381.2 317.9,381.4 318.5,381.6 319,381.5 319.6,381.2 320.2,380.8 320.7,380 321.3,379.6 321.8,379.6 322.4,379.9 322.9,380.6 323.5,381.4 324.1,382.2 324.6,382.9 325.2,383.4 325.7,383.6 326.3,383.9 326.9,384.3 327.4,384.6 328,384.9 328.5,385 329.1,384.5 329.6,383.5 330.2,382 330.8,380.5 331.3,379.2 331.9,378.3 332.4,377.8 333,377.9 333.6,378.6 334.1,379.6 334.7,380.5 335.2,381.2 335.8,381.8 336.3,382.2 336.9,382.8 337.5,383.2 338,383.6 338.6,383.9 339.1,383.8 339.7,383.2 340.3,382.3 340.8,381.2 341.4,380.3 341.9,379.6 342.5,379.2 343.1,379.3 343.6,379.7 344.2,380.6 344.7,381.2 345.3,381.5 345.8,381.7 346.4,382 347,382.6 347.5,383.4 348.1,384.1 348.6,384.5 349.2,384.3 349.8,383.8 350.3,382.9 350.9,382 351.4,381.3 352,380.9 352.5,380.7 353.1,380.8 353.7,381.1 354.2,381.9 354.8,382.8 355.3,383.2 355.9,383.5 356.5,383.3 357,382.7 357.6,382.1 358.1,381.4 358.7,380.8 359.2,380.3 359.8,379.6 360.4,378.6 360.9,377.8 361.5,377.4 362,377.2 362.6,377.3 363.2,377.7 363.7,378.5 364.3,379.6 364.8,381 365.4,381.9 365.9,382.3 366.5,382.6 367.1,382.3 367.6,381.7 368.2,381.4 368.7,381.4 369.3,381.6 369.9,381.7 370.4,382 371,382.3 371.5,382.5 372.1,382.5 372.6,382.4 373.2,382.1 373.8,382.2 374.3,382.3 374.9,382.5 375.4,382.7 376,382.8 376.6,382.8 377.1,383.1 377.7,383.3 378.2,383.5 378.8,383.5 379.3,383.7 379.9,383.9 380.5,384 381,384.1 381.6,384 382.1,383.8 382.7,383.5 383.3,383.1 383.8,382.7 384.4,382 384.9,381.4 385.5,380.8 386,380.5 386.6,380.9 387.2,381.3 387.7,381.6 388.3,382 388.8,382.1 389.4,382 390,381.4 390.5,380.5 391.1,379.2 391.6,378.1 392.2,377.4 392.7,377.2 393.3,377.3 393.9,377.6 394.4,378.2 395,378.9 395.5,379.5 396.1,380.4 396.7,381 397.2,381.5 397.8,382.1 398.3,382.5 398.9,382.9 399.4,383.1 400,383.1 400.6,383 401.1,382.6 401.7,382 402.2,382 402.8,381.8 403.4,381.4 403.9,381.1 404.5,380.7 405,380.3 405.6,380 406.1,380.3 406.7,380.8 407.3,381.3 407.8,381.6 408.4,381.5 408.9,380.8 409.5,379.8 410.1,379.1 410.6,378.5 411.2,378.1 411.7,377.8 412.3,378.2 412.9,378.9 413.4,379.4 414,379.8 414.5,380.1 415.1,380.1 415.6,379.7 416.2,379.5 416.8,379.6 417.3,379.9 417.9,380.5 418.4,381.2 419,382 419.6,382.6 420.1,383.2 420.7,383.5 421.2,383.4 421.8,383.1 422.3,382.2 422.9,381.5 423.5,380.7 424,380 424.6,379.5 425.1,379.6 425.7,379.9 426.3,380.1 426.8,380.2 427.4,380.4 427.9,380.4 428.5,380.2 429,379.8 429.6,379.3 430.2,379 430.7,378.7 431.3,378.5 431.8,378.1 432.4,377.7 433,377.6 433.5,377.5 434.1,377.4 434.6,377.2 435.2,376.8 435.7,376.4 436.3,376.6 436.9,377.1 437.4,377.9 438,378.8 438.5,379.4 439.1,380 439.7,380.4 440.2,380.4 440.8,379.7 441.3,378.6 441.9,377.2 442.4,376 443,375 443.6,374.4 444.1,374.2 444.7,374.2 445.2,374 445.8,374.2 446.4,374.3 446.9,374.6 447.5,374.7 448,375 448.6,375.2 449.1,375.7 449.7,376.3 450.3,376.5 450.8,376.4 451.4,376.3 451.9,375.9 452.5,375.9 453.1,376.2 453.6,376.7 454.2,377.2 454.7,377.8 455.3,378.1 455.8,377.9 456.4,377.4 457,376.7 457.5,376 458.1,375.4 458.6,374.9 459.2,374.7 459.8,374.7 460.3,374.9 460.9,375.1 461.4,375.4 462,376 462.5,376.6 463.1,376.8 463.7,376.8 464.2,376.6 464.8,376.3 465.3,375.9 465.9,375.6 466.5,375.3 467,375.2 467.6,375.1 468.1,375 468.7,374.4 469.2,373.4 469.8,372.2 470.4,370.9 470.9,370.1 471.5,370 472,370.4 472.6,371 473.2,371.9 473.7,372.8 474.3,373.6 474.8,374.5 475.4,374.8 475.9,374.8 476.5,374.3 477.1,373.4 477.6,372.3 478.2,371.4 478.7,370.7 479.3,370.7 479.9,371.3 480.4,371.9 481,372.7 481.5,373.2 482.1,373.3 482.7,372.7 483.2,372.2 483.8,371.4 484.3,370.4 484.9,369.5 485.4,368.7 486,368.5 486.6,368.7 487.1,369.4 487.7,370.6 488.2,372 488.8,373.3 489.4,373.7 489.9,373.6 490.5,373.4 491,373.1 491.6,372.7 492.1,372.1 492.7,371.3 493.3,370.6 493.8,370.3 494.4,370.7 494.9,371.1 495.5,371.2 496.1,370.9 496.6,370.6 497.2,370 497.7,369.5 498.3,369.3 498.8,369.6 499.4,370.3 500,370.9 500.5,371.4 501.1,371.3 501.6,371 502.2,370.7 502.8,370.2 503.3,370 503.9,370.2 504.4,370.9 505,371.4 505.5,371.9 506.1,372.7 506.7,373.6 507.2,374.6 507.8,375.3 508.3,375.6 508.9,375 509.5,373.9 510,372.4 510.6,371 511.1,369.9 511.7,369.2 512.2,369.1 512.8,369.3 513.4,369.6 513.9,369.6 514.5,369.3 515,369.1 515.6,369.3 516.2,369.5 516.7,369.7 517.3,370 517.8,370.4 518.4,370.7 518.9,370.9 519.5,371.4 520.1,371.7 520.6,372 521.2,371.9 521.7,371.9 522.3,371.6 522.9,370.3 523.4,369.2 524,368.1 524.5,366.9 525.1,366.3 525.6,366 526.2,365.8 526.8,365.6 527.3,365.3 527.9,364.8 528.4,364.1 529,363.8 529.6,363.5 530.1,363.8 530.7,364.5 531.2,365.4 531.8,366.3 532.3,367.4 532.9,368.5 533.5,369.6 534,370.3 534.6,370.7 535.1,370.7 535.7,370.3 536.3,369.4 536.8,368.3 537.4,367.3 537.9,366.5 538.5,366.3 539,366.5 539.6,366.7 540.2,366.6 540.7,366.1 541.3,365.4 541.8,365 542.4,365.1 543,365.7 543.5,366.8 544.1,368.1 544.6,369.2 545.2,369.8 545.7,369.8 546.3,369.4 546.9,368.4 547.4,367.5 548,366.9 548.5,366.4 549.1,366.7 549.7,367.2 550.2,367.7 550.8,367.9 551.3,367.9 551.9,367.2 552.5,366.2 553,365.1 553.6,364.1 554.1,364 554.7,364.5 555.2,365.2 555.8,366 556.4,367.1 556.9,368 557.5,368.6 558,368.8 558.6,368.7 559.2,368.6 559.7,368.5 560.3,368.6 560.8,368.5 561.4,368.3 561.9,368.2 562.5,367.9 563.1,367.6 563.6,367 564.2,366.2 564.7,365.5 565.3,364.8 565.9,364.1 566.4,363.3 567,362.5 567.5,361.6 568.1,361.1 568.6,361.1 569.2,361.3 569.8,362 570.3,362.9 570.9,363.7 571.4,364.3 572,364.5 572.6,364.3 573.1,363.8 573.7,363.2 574.2,362.7 574.8,362.8 575.3,363.6 575.9,365.1 576.5,366.6 577,367.6 577.6,367.8 578.1,367.2 578.7,366.2 579.3,364.3 579.8,362.3 580.4,360.9 580.9,360.3 581.5,360.5 582,360.7 582.6,360.6 583.2,360.7 583.7,360.8 584.3,360.8 584.8,360.9 585.4,361 586,361.2 586.5,361.7 587.1,362.5 587.6,363.4 588.2,364.1 588.7,364.7 589.3,365 589.9,364.9 590.4,364.5 591,364 591.5,363.1 592.1,362.4 592.7,362 593.2,362 593.8,362.3 594.3,362.5 594.9,362.6 595.4,362.6 596,362.5 596.6,362.1 597.1,361.7 597.7,361 598.2,360.6 598.8,360.4 599.4,360.9 599.9,361.9 600.5,363 601,364.3 601.6,365.3 602.1,365.9 602.7,365.9 603.3,365.4 603.8,364.7 604.4,364 604.9,363.5 605.5,363.3 606.1,363.2 606.6,362.9 607.2,362.7 607.7,362.8 608.3,363.3 608.8,363.8 609.4,364.4 610,364.9 610.5,365.3 611.1,365.5 611.6,365.4 612.2,365.1 612.8,364.6 613.3,363.8 613.9,362.8 614.4,361.5 615,360.3 615.5,359.3 616.1,358.8 616.7,358.9 617.2,359.2 617.8,359.4 618.3,359.7 618.9,360.6 " />
</g>

<g fill="none" stroke="#000000" stroke-opacity="1" stroke-width="1" stroke-linecap="square" stroke-linejoin="bevel" transform="matrix(1.00625,0,0,1.00625,0,0)"
font-family="Cantarell" font-size="11" font-weight="400" font-style="normal" 
>
</g>

<g fill="none" stroke="#000000" stroke-opacity="1" stroke-width="1" stroke-linecap="square" stroke-linejoin="bevel" transform="matrix(1.00625,0,0,1.00625,492.056,94.0844)"
font-family="Cantarell" font-size="11" font-weight="400" font-style="normal" 
>
</g>

<g fill="none" stroke="#000000" stroke-opacity="1" stroke-width="1" stroke-linecap="square" stroke-linejoin="bevel" transform="matrix(1.00625,0,0,1.00625,492.056,94.0844)"
font-family="Cantarell" font-size="11" font-weight="400" font-style="normal" 
>
</g>

<g fill="none" stroke="#000000" stroke-opacity="1" stroke-width="1" stroke-linecap="square" stroke-linejoin="bevel" transform="matrix(1.00625,0,0,1.00625,492.056,94.0844)"
font-family="Cantarell" font-size="11" font-weight="400" font-style="normal" 
>
</g>

<g fill="none" stroke="#000000" stroke-opacity="1" stroke-width="1" stroke-linecap="square" stroke-linejoin="bevel" transform="matrix(1.00625,0,0,1.00625,492.056,94.0844)"
font-family="Cantarell" font-size="11" font-weight="400" font-style="normal" 
>
</g>

<g fill="none" stroke="#000000" stroke-opacity="1" stroke-width="1" stroke-linecap="square" stroke-linejoin="bevel" transform="matrix(1.00625,0,0,1.00625,492.056,94.0844)"
font-family="Cantarell" font-size="11" font-weight="400" font-style="normal" 
>
</g>

<g fill="none" stroke="#000000" stroke-opacity="1" stroke-width="1" stroke-linecap="square" stroke-linejoin="bevel" transform="matrix(1.00625,0,0,1.00625,492.056,94.0844)"
font-family="Sans" font-size="9" font-weight="400" font-style="normal" 
>
<text fill="#000000" fill-opacity="1" stroke="none" xml:space="preserve" x="0" y="0" font-family="Sans" font-size="9" font-weight="400" font-style="normal" 
 >Total energy</text>
</g>

<g fill="none" stroke="#000000" stroke-opacity="1" stroke-width="1" stroke-linecap="square" stroke-linejoin="bevel" transform="matrix(1.00625,0,0,1.00625,492.056,94.0844)"
font-family="Cantarell" font-size="11" font-weight="400" font-style="normal" 
>
</g>

<g fill="none" stroke="#000000" stroke-opacity="1" stroke-width="1" stroke-linecap="square" stroke-linejoin="bevel" transform="matrix(1.00625,0,0,1.00625,0,0)"
font-family="Cantarell" font-size="11" font-weight="400" font-style="normal" 
>
</g>

<g fill="none" stroke="#56b4e9" stroke-opacity="1" stroke-width="2.4" stroke-linecap="round" stroke-linejoin="round" transform="matrix(1.00625,0,0,1.00625,0,0)"
font-family="Cantarell" font-size="11" font-weight="400" font-style="normal" 
>
<path vector-effect="none" fill-rule="evenodd" d="M570.5,88.5 L604.5,88.5"/>
</g>

<g fill="none" stroke="#000000" stroke-opacity="1" stroke-width="1" stroke-linecap="square" stroke-linejoin="bevel" transform="matrix(1.00625,0,0,1.00625,0,0)"
font-family="Cantarell" font-size="11" font-weight="400" font-style="normal" 
>
</g>

<g fill="none" stroke="#000000" stroke-opacity="1" stroke-width="1" stroke-linecap="square" stroke-linejoin="bevel" transform="matrix(1.00625,0,0,1.00625,0,0)"
font-family="Cantarell" font-size="11" font-weight="400" font-style="normal" 
>
</g>

<g fill="none" stroke="#000000" stroke-opacity="1" stroke-width="1" stroke-linecap="square" stroke-linejoin="bevel" transform="matrix(1.00625,0,0,1.00625,0,0)"
font-family="Cantarell" font-size="11" font-weight="400" font-style="normal" 
>
</g>

<g fill="none" stroke="#000000" stroke-opacity="1" stroke-width="1" stroke-linecap="square" stroke-linejoin="bevel" transform="matrix(1.00625,0,0,1.00625,0,0)"
font-family="Cantarell" font-size="11" font-weight="400" font-style="normal" 
>
</g>

<g fill="none" stroke="#56b4e9" stroke-opacity="1" stroke-width="2.4" stroke-linecap="round" stroke-linejoin="round" transform="matrix(1.00625,0,0,1.00625,0,0)"
font-family="Cantarell" font-size="11" font-weight="400" font-style="normal" 
>
<polyline fill="none" vector-effect="none" points="60.5,97.9 60.5,97.9 61.1,97.9 61.6,97.9 62.2,97.9 62.7,97.9 63.3,98 63.9,98 64.4,98.1 65,98.3 65.5,98.4 66.1,98.4 66.6,98.6 67.2,98.8 67.8,98.8 68.3,98.9 68.9,98.9 69.4,98.8 70,98.9 70.6,99 71.1,99.2 71.7,99.4 72.2,99.6 72.8,99.6 73.3,99.8 73.9,99.7 74.5,99.9 75,99.9 75.6,99.9 76.1,99.9 76.7,100 77.3,100 77.8,100.1 78.4,100.2 78.9,100.3 79.5,100.4 80,100.5 80.6,100.6 81.2,100.7 81.7,100.8 82.3,100.9 82.8,101 83.4,101 84,101 84.5,100.9 85.1,101 85.6,101 86.2,101.1 86.7,101.2 87.3,101.3 87.9,101.3 88.4,101.3 89,101.3 89.5,101.5 90.1,101.5 90.7,101.6 91.2,101.6 91.8,101.7 92.3,101.6 92.9,101.8 93.4,101.9 94,102 94.6,102.2 95.1,102.3 95.7,102.4 96.2,102.5 96.8,102.4 97.4,102.4 97.9,102.6 98.5,102.8 99,102.9 99.6,103.2 100.1,103.3 100.7,103.4 101.3,103.6 101.8,103.7 102.4,103.8 102.9,103.8 103.5,103.9 104.1,103.9 104.6,104.1 105.2,104.3 105.7,104.4 106.3,104.6 106.8,104.7 107.4,104.8 108,104.9 108.5,105.1 109.1,105.3 109.6,105.5 110.2,105.7 110.8,105.8 111.3,105.8 111.9,106 112.4,106.2 113,106.4 113.5,106.6 114.1,106.9 114.7,107.1 115.2,107.2 115.8,107.2 116.3,107.5 116.9,107.7 117.5,108.1 118,108.1 118.6,108.3 119.1,108.5 119.7,108.7 120.2,109 120.8,109.3 121.4,109.5 121.9,109.7 122.5,109.9 123,110 123.6,110.2 124.2,110.4 124.7,110.7 125.3,110.8 125.8,111 126.4,111.2 126.9,111.3 127.5,111.5 128.1,111.8 128.6,111.9 129.2,112 129.7,112.2 130.3,112.3 130.9,112.6 131.4,112.7 132,112.8 132.5,112.8 133.1,113.1 133.7,113.3 134.2,113.6 134.8,113.9 135.3,114.2 135.9,114.2 136.4,114.4 137,114.7 137.6,115 138.1,115.3 138.7,115.4 139.2,115.6 139.8,115.8 140.4,116 140.9,116.2 141.5,116.5 142,116.9 142.6,117.2 143.1,117.5 143.7,117.7 144.3,118 144.8,118.2 145.4,118.5 145.9,118.6 146.5,118.8 147.1,119 147.6,119.2 148.2,119.3 148.7,119.5 149.3,119.7 149.8,119.9 150.4,120.2 151,120.3 151.5,120.7 152.1,120.8 152.6,121 153.2,121.2 153.8,121.3 154.3,121.5 154.9,121.6 155.4,121.7 156,121.9 156.5,122.2 157.1,122.5 157.7,122.7 158.2,122.9 158.8,123.2 159.3,123.5 159.9,123.8 160.5,124.1 161,124.3 161.6,124.4 162.1,124.8 162.7,125 163.2,125.1 163.8,125.3 164.4,125.7 164.9,125.9 165.5,126.1 166,126.4 166.6,126.7 167.2,127 167.7,127.3 168.3,127.4 168.8,127.6 169.4,127.8 169.9,127.8 170.5,128.2 171.1,128.4 171.6,128.6 172.2,128.9 172.7,129.1 173.3,129.4 173.9,129.7 174.4,130 175,130.3 175.5,130.4 176.1,130.6 176.6,130.9 177.2,131.2 177.8,131.5 178.3,131.7 178.9,132 179.4,132.3 180,132.5 180.6,132.8 181.1,133 181.7,133.3 182.2,133.5 182.8,133.7 183.3,133.9 183.9,134.1 184.5,134.4 185,134.7 185.6,135 186.1,135.3 186.7,135.7 187.3,135.8 187.8,136 188.4,136.2 188.9,136.5 189.5,136.7 190,137.1 190.6,137.3 191.2,137.6 191.7,137.9 192.3,138.2 192.8,138.6 193.4,138.9 194,139.1 194.5,139.3 195.1,139.6 195.6,139.8 196.2,139.9 196.7,140.1 197.3,140.3 197.9,140.6 198.4,140.9 199,141.1 199.5,141.3 200.1,141.7 200.7,142 201.2,142.3 201.8,142.5 202.3,142.9 202.9,143.1 203.5,143.4 204,143.7 204.6,143.9 205.1,144.2 205.7,144.5 206.2,144.8 206.8,145.1 207.4,145.4 207.9,145.7 208.5,145.9 209,146.1 209.6,146.4 210.2,146.7 210.7,146.9 211.3,147.1 211.8,147.4 212.4,147.6 212.9,147.8 213.5,147.9 214.1,148.3 214.6,148.5 215.2,148.9 215.7,149.2 216.3,149.4 216.9,149.6 217.4,149.8 218,150.1 218.5,150.3 219.1,150.6 219.6,150.8 220.2,151.1 220.8,151.4 221.3,151.5 221.9,151.9 222.4,152.1 223,152.3 223.6,152.5 224.1,152.8 224.7,153.2 225.2,153.4 225.8,153.5 226.3,153.7 226.9,153.9 227.5,154.2 228,154.2 228.6,154.5 229.1,154.6 229.7,154.8 230.3,155 230.8,155.2 231.4,155.2 231.9,155.6 232.5,155.8 233,156 233.6,156.1 234.2,156.3 234.7,156.4 235.3,156.6 235.8,156.7 236.4,156.9 237,157.1 237.5,157.2 238.1,157.4 238.6,157.6 239.2,157.9 239.7,158.2 240.3,158.3 240.9,158.6 241.4,158.7 242,158.8 242.5,159 243.1,159.1 243.7,159.4 244.2,159.6 244.8,159.7 245.3,159.9 245.9,160.1 246.4,160.3 247,160.6 247.6,160.8 248.1,161 248.7,161.2 249.2,161.3 249.8,161.5 250.4,161.8 250.9,161.9 251.5,162.1 252,162.3 252.6,162.6 253.1,162.7 253.7,162.9 254.3,163.2 254.8,163.4 255.4,163.6 255.9,163.9 256.5,164.2 257.1,164.3 257.6,164.6 258.2,164.7 258.7,164.8 259.3,164.9 259.8,165.2 260.4,165.4 261,165.6 261.5,165.9 262.1,165.9 262.6,166.2 263.2,166.5 263.8,166.7 264.3,166.9 264.9,167.1 265.4,167.4 266,167.5 266.5,167.6 267.1,167.8 267.7,168.1 268.2,168.3 268.8,168.4 269.3,168.6 269.9,168.7 270.5,168.8 271,168.8 271.6,169 272.1,169.3 272.7,169.5 273.3,169.7 273.8,169.8 274.4,169.9 274.9,170 275.5,170.2 276,170.3 276.6,170.4 277.2,170.5 277.7,170.7 278.3,170.9 278.8,171.1 279.4,171.2 280,171.3 280.5,171.4 281.1,171.4 281.6,171.5 282.2,171.5 282.7,171.5 283.3,171.7 283.9,171.9 284.4,172 285,172.1 285.5,172.1 286.1,172.1 286.7,172.2 287.2,172.2 287.8,172.3 288.3,172.5 288.9,172.5 289.4,172.6 290,172.6 290.6,172.8 291.1,172.8 291.7,172.9 292.2,173 292.8,173.1 293.4,173.3 293.9,173.3 294.5,173.4 295,173.5 295.6,173.6 296.1,173.8 296.7,173.9 297.3,173.8 297.8,173.8 298.4,174 298.9,174 299.5,174.2 300.1,174.4 300.6,174.5 301.2,174.5 301.7,174.6 302.3,174.7 302.8,174.9 303.4,175 304,175.2 304.5,175.3 305.1,175.4 305.6,175.6 306.2,175.6 306.8,175.6 307.3,175.8 307.9,175.8 308.4,175.9 309,176 309.5,176.2 310.1,176.2 310.7,176.2 311.2,176.2 311.8,176.2 312.3,176.2 312.9,176.2 313.5,176.2 314,176.4 314.6,176.6 315.1,176.7 315.7,176.7 316.2,176.7 316.8,176.8 317.4,177 317.9,177.1 318.5,177.2 319,177.1 319.6,177 320.2,177.1 320.7,177 321.3,177.1 321.8,177.1 322.4,177.1 322.9,177.2 323.5,177.3 324.1,177.4 324.6,177.3 325.2,177.4 325.7,177.4 326.3,177.5 326.9,177.5 327.4,177.5 328,177.6 328.5,177.6 329.1,177.6 329.6,177.6 330.2,177.5 330.8,177.5 331.3,177.5 331.9,177.4 332.4,177.5 333,177.6 333.6,177.6 334.1,177.7 334.7,177.6 335.2,177.5 335.8,177.6 336.3,177.6 336.9,177.7 337.5,177.7 338,177.7 338.6,177.8 339.1,177.9 339.7,177.9 340.3,177.9 340.8,177.9 341.4,178 341.9,178 342.5,177.9 343.1,177.9 343.6,177.8 344.2,178 344.7,178 345.3,178.1 345.8,178.1 346.4,178.1 347,178 347.5,178 348.1,178 348.6,178 349.2,177.9 349.8,177.9 350.3,177.8 350.9,177.7 351.4,177.8 352,177.7 352.5,177.8 353.1,177.8 353.7,177.7 354.2,177.7 354.8,177.7 355.3,177.6 355.9,177.7 356.5,177.7 357,177.6 357.6,177.6 358.1,177.5 358.7,177.5 359.2,177.5 359.8,177.3 360.4,177.1 360.9,177.1 361.5,177.1 362,177 362.6,176.9 363.2,176.8 363.7,176.8 364.3,176.5 364.8,176.6 365.4,176.6 365.9,176.5 366.5,176.5 367.1,176.4 367.6,176.3 368.2,176.4 368.7,176.3 369.3,176.2 369.9,176.1 370.4,175.9 371,175.8 371.5,175.8 372.1,175.6 372.6,175.5 373.2,175.4 373.8,175.4 374.3,175.2 374.9,175.1 375.4,175.2 376,175 376.6,174.8 377.1,174.8 377.7,174.7 378.2,174.6 378.8,174.5 379.3,174.5 379.9,174.5 380.5,174.3 381,174.2 381.6,174 382.1,174 382.7,173.8 383.3,173.7 383.8,173.7 384.4,173.6 384.9,173.5 385.5,173.4 386,173.3 386.6,173.4 387.2,173.3 387.7,173.3 388.3,173.3 388.8,173.2 389.4,173.1 390,172.9 390.5,172.8 391.1,172.6 391.6,172.5 392.2,172.4 392.7,172.2 393.3,172.2 393.9,172.1 394.4,172.1 395,172 395.5,171.9 396.1,171.9 396.7,171.8 397.2,171.6 397.8,171.4 398.3,171.3 398.9,171.3 399.4,171.1 400,170.9 400.6,170.9 401.1,170.8 401.7,170.6 402.2,170.6 402.8,170.4 403.4,170.2 403.9,170.1 404.5,170 405,169.8 405.6,169.7 406.1,169.6 406.7,169.6 407.3,169.6 407.8,169.4 408.4,169.2 408.9,169.1 409.5,169 410.1,168.9 410.6,168.8 411.2,168.7 411.7,168.5 412.3,168.5 412.9,168.5 413.4,168.3 414,168.3 414.5,168.2 415.1,168 415.6,167.8 416.2,167.6 416.8,167.5 417.3,167.3 417.9,167.2 418.4,167.1 419,166.9 419.6,166.6 420.1,166.5 420.7,166.5 421.2,166.3 421.8,166.3 422.3,166.1 422.9,165.8 423.5,165.7 424,165.5 424.6,165.3 425.1,165.1 425.7,165 426.3,164.9 426.8,164.7 427.4,164.5 427.9,164.4 428.5,164.3 429,164.1 429.6,164 430.2,163.9 430.7,163.7 431.3,163.6 431.8,163.3 432.4,163 433,162.8 433.5,162.5 434.1,162.3 434.6,162.1 435.2,161.9 435.7,161.7 436.3,161.5 436.9,161.3 437.4,161.1 438,160.9 438.5,160.6 439.1,160.5 439.7,160.4 440.2,160.2 440.8,160 441.3,159.8 441.9,159.5 442.4,159.4 443,159.2 443.6,159 444.1,158.8 444.7,158.7 445.2,158.3 445.8,158.1 446.4,157.9 446.9,157.8 447.5,157.5 448,157.2 448.6,157 449.1,156.8 449.7,156.6 450.3,156.3 450.8,156 451.4,155.9 451.9,155.6 452.5,155.5 453.1,155.3 453.6,155.2 454.2,154.9 454.7,154.7 455.3,154.4 455.8,154.1 456.4,153.9 457,153.8 457.5,153.5 458.1,153.4 458.6,153.2 459.2,153.1 459.8,152.9 460.3,152.7 460.9,152.5 461.4,152.2 462,152.1 462.5,152 463.1,151.7 463.7,151.5 464.2,151.3 464.8,151 465.3,150.7 465.9,150.4 466.5,150.1 467,149.9 467.6,149.6 468.1,149.5 468.7,149.2 469.2,148.9 469.8,148.7 470.4,148.4 470.9,148.2 471.5,148 472,147.8 472.6,147.5 473.2,147.3 473.7,147.1 474.3,146.9 474.8,146.7 475.4,146.4 475.9,146.1 476.5,145.9 477.1,145.7 477.6,145.5 478.2,145.3 478.7,145 479.3,144.8 479.9,144.7 480.4,144.6 481,144.5 481.5,144.2 482.1,144 482.7,143.7 483.2,143.4 483.8,143.1 484.3,142.9 484.9,142.8 485.4,142.5 486,142.3 486.6,141.9 487.1,141.7 487.7,141.7 488.2,141.4 488.8,141.3 489.4,141.1 489.9,140.8 490.5,140.5 491,140.3 491.6,140.1 492.1,139.7 492.7,139.4 493.3,139.2 493.8,139 494.4,138.8 494.9,138.5 495.5,138.4 496.1,138.1 496.6,137.8 497.2,137.5 497.7,137.3 498.3,137 498.8,136.7 499.4,136.4 500,136.3 500.5,136.1 501.1,135.8 501.6,135.6 502.2,135.5 502.8,135.1 503.3,135 503.9,134.8 504.4,134.8 505,134.5 505.5,134.4 506.1,134.2 506.7,133.9 507.2,133.8 507.8,133.6 508.3,133.4 508.9,133 509.5,132.8 510,132.4 510.6,132.1 511.1,131.7 511.7,131.5 512.2,131.3 512.8,131 513.4,130.8 513.9,130.6 514.5,130.3 515,130.1 515.6,129.9 516.2,129.6 516.7,129.3 517.3,129.1 517.8,128.9 518.4,128.7 518.9,128.4 519.5,128.4 520.1,128.1 520.6,127.9 521.2,127.6 521.7,127.4 522.3,127.2 522.9,126.8 523.4,126.5 524,126.3 524.5,125.9 525.1,125.8 525.6,125.6 526.2,125.2 526.8,125 527.3,124.7 527.9,124.5 528.4,124.1 529,124 529.6,123.6 530.1,123.4 530.7,123.2 531.2,123 531.8,122.6 532.3,122.5 532.9,122.3 533.5,122.3 534,122 534.6,121.8 535.1,121.7 535.7,121.5 536.3,121.3 536.8,121.1 537.4,120.9 537.9,120.7 538.5,120.6 539,120.5 539.6,120.3 540.2,120.2 540.7,119.9 541.3,119.7 541.8,119.4 542.4,119.2 543,119.1 543.5,118.9 544.1,118.7 544.6,118.5 545.2,118.3 545.7,118 546.3,117.9 546.9,117.7 547.4,117.4 548,117.2 548.5,116.9 549.1,116.8 549.7,116.5 550.2,116.4 550.8,116.2 551.3,116.1 551.9,115.9 552.5,115.8 553,115.7 553.6,115.6 554.1,115.5 554.7,115.3 555.2,115.1 555.8,114.9 556.4,114.8 556.9,114.6 557.5,114.4 558,114.2 558.6,114 559.2,113.9 559.7,113.8 560.3,113.6 560.8,113.3 561.4,113 561.9,112.9 562.5,112.7 563.1,112.6 563.6,112.6 564.2,112.3 564.7,112.2 565.3,112 565.9,111.8 566.4,111.6 567,111.4 567.5,111.1 568.1,110.9 568.6,110.7 569.2,110.6 569.8,110.4 570.3,110.2 570.9,110.1 571.4,110.2 572,109.9 572.6,109.8 573.1,109.6 573.7,109.3 574.2,109 574.8,108.8 575.3,108.7 575.9,108.5 576.5,108.4 577,108.3 577.6,108.1 578.1,107.8 578.7,107.8 579.3,107.5 579.8,107.3 580.4,107.2 580.9,107 581.5,106.9 582,106.7 582.6,106.5 583.2,106.5 583.7,106.4 584.3,106.2 584.8,106 585.4,105.9 586,105.7 586.5,105.4 587.1,105.4 587.6,105.4 588.2,105.2 588.7,105 589.3,104.9 589.9,104.8 590.4,104.8 591,104.9 591.5,104.7 592.1,104.7 592.7,104.7 593.2,104.5 593.8,104.5 594.3,104.4 594.9,104.4 595.4,104.3 596,104.2 596.6,104.1 597.1,104.1 597.7,104 598.2,104 598.8,103.7 599.4,103.6 599.9,103.6 600.5,103.4 601,103.4 601.6,103.3 602.1,103.2 602.7,103.1 603.3,103 603.8,102.8 604.4,102.7 604.9,102.5 605.5,102.4 606.1,102.4 606.6,102.3 607.2,102.2 607.7,102.1 608.3,102 608.8,101.9 609.4,101.8 610,101.6 610.5,101.5 611.1,101.5 611.6,101.4 612.2,101.3 612.8,101.1 613.3,101.1 613.9,100.9 614.4,100.8 615,100.7 615.5,100.7 616.1,100.8 616.7,100.8 617.2,100.9 617.8,100.8 618.3,100.9 618.9,101 " />
</g>

<g fill="none" stroke="#000000" stroke-opacity="1" stroke-width="1" stroke-linecap="square" stroke-linejoin="bevel" transform="matrix(1.00625,0,0,1.00625,0,0)"
font-family="Cantarell" font-size="11" font-weight="400" font-style="normal" 
>
</g>

<g fill="none" stroke="#000000" stroke-opacity="1" stroke-width="1" stroke-linecap="square" stroke-linejoin="bevel" transform="matrix(1.00625,0,0,1.00625,0,0)"
font-family="Cantarell" font-size="11" font-weight="400" font-style="normal" 
>
</g>

<g fill="none" stroke="#000000" stroke-opacity="1" stroke-width="1" stroke-linecap="round" stroke-linejoin="round" transform="matrix(1.00625,0,0,1.00625,0,0)"
font-family="Cantarell" font-size="11" font-weight="400" font-style="normal" 
>
<polyline fill="none" vector-effect="none" points="60.5,45.5 60.5,432.5 618.5,432.5 618.5,45.5 60.5,45.5 " />
</g>

<g fill="none" stroke="#000000" stroke-opacity="1" stroke-width="1" stroke-linecap="square" stroke-linejoin="bevel" transform="matrix(1.00625,0,0,1.00625,0,0)"
font-family="Cantarell" font-size="11" font-weight="400" font-style="normal" 
>
</g>

<g fill="none" stroke="#000000" stroke-opacity="1" stroke-width="1" stroke-linecap="square" stroke-linejoin="bevel" transform="matrix(1,0,0,1,0,0)"
font-family="Cantarell" font-size="11" font-weight="400" font-style="normal" 
>
</g>
</g>
</svg>
