<?xml version="1.0" encoding="UTF-8" standalone="no"?>
<svg width="227.189mm" height="170.744mm"
 viewBox="0 0 644 484"
 xmlns="http://www.w3.org/2000/svg" xmlns:xlink="http://www.w3.org/1999/xlink"  version="1.2" baseProfile="tiny">
<title>Qt SVG Document</title>
<desc>Generated with Qt</desc>
<defs>
</defs>
<g fill="none" stroke="black" stroke-width="1" fill-rule="evenodd" stroke-linecap="square" stroke-linejoin="bevel" >

<g fill="none" stroke="#000000" stroke-opacity="1" stroke-width="1" stroke-linecap="square" stroke-linejoin="bevel" transform="matrix(1,0,0,1,0,0)"
font-family="Cantarell" font-size="11" font-weight="400" font-style="normal" 
>
</g>

<g fill="none" stroke="#000000" stroke-opacity="1" stroke-width="1" stroke-linecap="square" stroke-linejoin="bevel" transform="matrix(1.00625,0,0,1.00625,0,0)"
font-family="Cantarell" font-size="11" font-weight="400" font-style="normal" 
>
</g>

<g fill="none" stroke="#000000" stroke-opacity="1" stroke-width="1.8" stroke-linecap="round" stroke-linejoin="round" transform="matrix(1.00625,0,0,1.00625,0,0)"
font-family="Cantarell" font-size="11" font-weight="400" font-style="normal" 
>
<polyline fill="none" vector-effect="none" points="46.5,423.5 52.5,423.5 " />
<polyline fill="none" vector-effect="none" points="618.5,423.5 612.5,423.5 " />
</g>

<g fill="none" stroke="#000000" stroke-opacity="1" stroke-width="1" stroke-linecap="square" stroke-linejoin="bevel" transform="matrix(1.00625,0,0,1.00625,0,0)"
font-family="Cantarell" font-size="11" font-weight="400" font-style="normal" 
>
</g>

<g fill="none" stroke="#000000" stroke-opacity="1" stroke-width="1" stroke-linecap="square" stroke-linejoin="bevel" transform="matrix(1.00625,0,0,1.00625,29.1813,430.172)"
font-family="Cantarell" font-size="11" font-weight="400" font-style="normal" 
>
</g>

<g fill="none" stroke="#000000" stroke-opacity="1" stroke-width="1" stroke-linecap="square" stroke-linejoin="bevel" transform="matrix(1.00625,0,0,1.00625,29.1813,430.172)"
font-family="Cantarell" font-size="11" font-weight="400" font-style="normal" 
>
</g>

<g fill="none" stroke="#000000" stroke-opacity="1" stroke-width="1" stroke-linecap="square" stroke-linejoin="bevel" transform="matrix(1.00625,0,0,1.00625,29.1813,430.172)"
font-family="Cantarell" font-size="11" font-weight="400" font-style="normal" 
>
</g>

<g fill="none" stroke="#000000" stroke-opacity="1" stroke-width="1" stroke-linecap="square" stroke-linejoin="bevel" transform="matrix(1.00625,0,0,1.00625,29.1813,430.172)"
font-family="Cantarell" font-size="11" font-weight="400" font-style="normal" 
>
</g>

<g fill="none" stroke="#000000" stroke-opacity="1" stroke-width="1" stroke-linecap="square" stroke-linejoin="bevel" transform="matrix(1.00625,0,0,1.00625,29.1813,430.172)"
font-family="Cantarell" font-size="11" font-weight="400" font-style="normal" 
>
</g>

<g fill="none" stroke="#000000" stroke-opacity="1" stroke-width="1" stroke-linecap="square" stroke-linejoin="bevel" transform="matrix(1.00625,0,0,1.00625,29.1813,430.172)"
font-family="Sans" font-size="9" font-weight="400" font-style="normal" 
>
<text fill="#000000" fill-opacity="1" stroke="none" xml:space="preserve" x="0" y="0" font-family="Sans" font-size="9" font-weight="400" font-style="normal" 
 >-4</text>
</g>

<g fill="none" stroke="#000000" stroke-opacity="1" stroke-width="1" stroke-linecap="square" stroke-linejoin="bevel" transform="matrix(1.00625,0,0,1.00625,29.1813,430.172)"
font-family="Cantarell" font-size="11" font-weight="400" font-style="normal" 
>
</g>

<g fill="none" stroke="#000000" stroke-opacity="1" stroke-width="1" stroke-linecap="square" stroke-linejoin="bevel" transform="matrix(1.00625,0,0,1.00625,0,0)"
font-family="Cantarell" font-size="11" font-weight="400" font-style="normal" 
>
</g>

<g fill="none" stroke="#000000" stroke-opacity="1" stroke-width="1.8" stroke-linecap="round" stroke-linejoin="round" transform="matrix(1.00625,0,0,1.00625,0,0)"
font-family="Cantarell" font-size="11" font-weight="400" font-style="normal" 
>
<polyline fill="none" vector-effect="none" points="46.5,339.5 52.5,339.5 " />
<polyline fill="none" vector-effect="none" points="618.5,339.5 612.5,339.5 " />
</g>

<g fill="none" stroke="#000000" stroke-opacity="1" stroke-width="1" stroke-linecap="square" stroke-linejoin="bevel" transform="matrix(1.00625,0,0,1.00625,0,0)"
font-family="Cantarell" font-size="11" font-weight="400" font-style="normal" 
>
</g>

<g fill="none" stroke="#000000" stroke-opacity="1" stroke-width="1" stroke-linecap="square" stroke-linejoin="bevel" transform="matrix(1.00625,0,0,1.00625,29.1813,346.653)"
font-family="Cantarell" font-size="11" font-weight="400" font-style="normal" 
>
</g>

<g fill="none" stroke="#000000" stroke-opacity="1" stroke-width="1" stroke-linecap="square" stroke-linejoin="bevel" transform="matrix(1.00625,0,0,1.00625,29.1813,346.653)"
font-family="Cantarell" font-size="11" font-weight="400" font-style="normal" 
>
</g>

<g fill="none" stroke="#000000" stroke-opacity="1" stroke-width="1" stroke-linecap="square" stroke-linejoin="bevel" transform="matrix(1.00625,0,0,1.00625,29.1813,346.653)"
font-family="Cantarell" font-size="11" font-weight="400" font-style="normal" 
>
</g>

<g fill="none" stroke="#000000" stroke-opacity="1" stroke-width="1" stroke-linecap="square" stroke-linejoin="bevel" transform="matrix(1.00625,0,0,1.00625,29.1813,346.653)"
font-family="Cantarell" font-size="11" font-weight="400" font-style="normal" 
>
</g>

<g fill="none" stroke="#000000" stroke-opacity="1" stroke-width="1" stroke-linecap="square" stroke-linejoin="bevel" transform="matrix(1.00625,0,0,1.00625,29.1813,346.653)"
font-family="Cantarell" font-size="11" font-weight="400" font-style="normal" 
>
</g>

<g fill="none" stroke="#000000" stroke-opacity="1" stroke-width="1" stroke-linecap="square" stroke-linejoin="bevel" transform="matrix(1.00625,0,0,1.00625,29.1813,346.653)"
font-family="Sans" font-size="9" font-weight="400" font-style="normal" 
>
<text fill="#000000" fill-opacity="1" stroke="none" xml:space="preserve" x="0" y="0" font-family="Sans" font-size="9" font-weight="400" font-style="normal" 
 >-2</text>
</g>

<g fill="none" stroke="#000000" stroke-opacity="1" stroke-width="1" stroke-linecap="square" stroke-linejoin="bevel" transform="matrix(1.00625,0,0,1.00625,29.1813,346.653)"
font-family="Cantarell" font-size="11" font-weight="400" font-style="normal" 
>
</g>

<g fill="none" stroke="#000000" stroke-opacity="1" stroke-width="1" stroke-linecap="square" stroke-linejoin="bevel" transform="matrix(1.00625,0,0,1.00625,0,0)"
font-family="Cantarell" font-size="11" font-weight="400" font-style="normal" 
>
</g>

<g fill="none" stroke="#000000" stroke-opacity="1" stroke-width="1.8" stroke-linecap="round" stroke-linejoin="round" transform="matrix(1.00625,0,0,1.00625,0,0)"
font-family="Cantarell" font-size="11" font-weight="400" font-style="normal" 
>
<polyline fill="none" vector-effect="none" points="46.5,256.5 52.5,256.5 " />
<polyline fill="none" vector-effect="none" points="618.5,256.5 612.5,256.5 " />
</g>

<g fill="none" stroke="#000000" stroke-opacity="1" stroke-width="1" stroke-linecap="square" stroke-linejoin="bevel" transform="matrix(1.00625,0,0,1.00625,0,0)"
font-family="Cantarell" font-size="11" font-weight="400" font-style="normal" 
>
</g>

<g fill="none" stroke="#000000" stroke-opacity="1" stroke-width="1" stroke-linecap="square" stroke-linejoin="bevel" transform="matrix(1.00625,0,0,1.00625,29.1813,262.128)"
font-family="Cantarell" font-size="11" font-weight="400" font-style="normal" 
>
</g>

<g fill="none" stroke="#000000" stroke-opacity="1" stroke-width="1" stroke-linecap="square" stroke-linejoin="bevel" transform="matrix(1.00625,0,0,1.00625,29.1813,262.128)"
font-family="Cantarell" font-size="11" font-weight="400" font-style="normal" 
>
</g>

<g fill="none" stroke="#000000" stroke-opacity="1" stroke-width="1" stroke-linecap="square" stroke-linejoin="bevel" transform="matrix(1.00625,0,0,1.00625,29.1813,262.128)"
font-family="Cantarell" font-size="11" font-weight="400" font-style="normal" 
>
</g>

<g fill="none" stroke="#000000" stroke-opacity="1" stroke-width="1" stroke-linecap="square" stroke-linejoin="bevel" transform="matrix(1.00625,0,0,1.00625,29.1813,262.128)"
font-family="Cantarell" font-size="11" font-weight="400" font-style="normal" 
>
</g>

<g fill="none" stroke="#000000" stroke-opacity="1" stroke-width="1" stroke-linecap="square" stroke-linejoin="bevel" transform="matrix(1.00625,0,0,1.00625,29.1813,262.128)"
font-family="Cantarell" font-size="11" font-weight="400" font-style="normal" 
>
</g>

<g fill="none" stroke="#000000" stroke-opacity="1" stroke-width="1" stroke-linecap="square" stroke-linejoin="bevel" transform="matrix(1.00625,0,0,1.00625,29.1813,262.128)"
font-family="Sans" font-size="9" font-weight="400" font-style="normal" 
>
<text fill="#000000" fill-opacity="1" stroke="none" xml:space="preserve" x="0" y="0" font-family="Sans" font-size="9" font-weight="400" font-style="normal" 
 > 0</text>
</g>

<g fill="none" stroke="#000000" stroke-opacity="1" stroke-width="1" stroke-linecap="square" stroke-linejoin="bevel" transform="matrix(1.00625,0,0,1.00625,29.1813,262.128)"
font-family="Cantarell" font-size="11" font-weight="400" font-style="normal" 
>
</g>

<g fill="none" stroke="#000000" stroke-opacity="1" stroke-width="1" stroke-linecap="square" stroke-linejoin="bevel" transform="matrix(1.00625,0,0,1.00625,0,0)"
font-family="Cantarell" font-size="11" font-weight="400" font-style="normal" 
>
</g>

<g fill="none" stroke="#000000" stroke-opacity="1" stroke-width="1.8" stroke-linecap="round" stroke-linejoin="round" transform="matrix(1.00625,0,0,1.00625,0,0)"
font-family="Cantarell" font-size="11" font-weight="400" font-style="normal" 
>
<polyline fill="none" vector-effect="none" points="46.5,173.5 52.5,173.5 " />
<polyline fill="none" vector-effect="none" points="618.5,173.5 612.5,173.5 " />
</g>

<g fill="none" stroke="#000000" stroke-opacity="1" stroke-width="1" stroke-linecap="square" stroke-linejoin="bevel" transform="matrix(1.00625,0,0,1.00625,0,0)"
font-family="Cantarell" font-size="11" font-weight="400" font-style="normal" 
>
</g>

<g fill="none" stroke="#000000" stroke-opacity="1" stroke-width="1" stroke-linecap="square" stroke-linejoin="bevel" transform="matrix(1.00625,0,0,1.00625,29.1813,178.609)"
font-family="Cantarell" font-size="11" font-weight="400" font-style="normal" 
>
</g>

<g fill="none" stroke="#000000" stroke-opacity="1" stroke-width="1" stroke-linecap="square" stroke-linejoin="bevel" transform="matrix(1.00625,0,0,1.00625,29.1813,178.609)"
font-family="Cantarell" font-size="11" font-weight="400" font-style="normal" 
>
</g>

<g fill="none" stroke="#000000" stroke-opacity="1" stroke-width="1" stroke-linecap="square" stroke-linejoin="bevel" transform="matrix(1.00625,0,0,1.00625,29.1813,178.609)"
font-family="Cantarell" font-size="11" font-weight="400" font-style="normal" 
>
</g>

<g fill="none" stroke="#000000" stroke-opacity="1" stroke-width="1" stroke-linecap="square" stroke-linejoin="bevel" transform="matrix(1.00625,0,0,1.00625,29.1813,178.609)"
font-family="Cantarell" font-size="11" font-weight="400" font-style="normal" 
>
</g>

<g fill="none" stroke="#000000" stroke-opacity="1" stroke-width="1" stroke-linecap="square" stroke-linejoin="bevel" transform="matrix(1.00625,0,0,1.00625,29.1813,178.609)"
font-family="Cantarell" font-size="11" font-weight="400" font-style="normal" 
>
</g>

<g fill="none" stroke="#000000" stroke-opacity="1" stroke-width="1" stroke-linecap="square" stroke-linejoin="bevel" transform="matrix(1.00625,0,0,1.00625,29.1813,178.609)"
font-family="Sans" font-size="9" font-weight="400" font-style="normal" 
>
<text fill="#000000" fill-opacity="1" stroke="none" xml:space="preserve" x="0" y="0" font-family="Sans" font-size="9" font-weight="400" font-style="normal" 
 > 2</text>
</g>

<g fill="none" stroke="#000000" stroke-opacity="1" stroke-width="1" stroke-linecap="square" stroke-linejoin="bevel" transform="matrix(1.00625,0,0,1.00625,29.1813,178.609)"
font-family="Cantarell" font-size="11" font-weight="400" font-style="normal" 
>
</g>

<g fill="none" stroke="#000000" stroke-opacity="1" stroke-width="1" stroke-linecap="square" stroke-linejoin="bevel" transform="matrix(1.00625,0,0,1.00625,0,0)"
font-family="Cantarell" font-size="11" font-weight="400" font-style="normal" 
>
</g>

<g fill="none" stroke="#000000" stroke-opacity="1" stroke-width="1.8" stroke-linecap="round" stroke-linejoin="round" transform="matrix(1.00625,0,0,1.00625,0,0)"
font-family="Cantarell" font-size="11" font-weight="400" font-style="normal" 
>
<polyline fill="none" vector-effect="none" points="46.5,89.5 52.5,89.5 " />
<polyline fill="none" vector-effect="none" points="618.5,89.5 612.5,89.5 " />
</g>

<g fill="none" stroke="#000000" stroke-opacity="1" stroke-width="1" stroke-linecap="square" stroke-linejoin="bevel" transform="matrix(1.00625,0,0,1.00625,0,0)"
font-family="Cantarell" font-size="11" font-weight="400" font-style="normal" 
>
</g>

<g fill="none" stroke="#000000" stroke-opacity="1" stroke-width="1" stroke-linecap="square" stroke-linejoin="bevel" transform="matrix(1.00625,0,0,1.00625,29.1813,95.0906)"
font-family="Cantarell" font-size="11" font-weight="400" font-style="normal" 
>
</g>

<g fill="none" stroke="#000000" stroke-opacity="1" stroke-width="1" stroke-linecap="square" stroke-linejoin="bevel" transform="matrix(1.00625,0,0,1.00625,29.1813,95.0906)"
font-family="Cantarell" font-size="11" font-weight="400" font-style="normal" 
>
</g>

<g fill="none" stroke="#000000" stroke-opacity="1" stroke-width="1" stroke-linecap="square" stroke-linejoin="bevel" transform="matrix(1.00625,0,0,1.00625,29.1813,95.0906)"
font-family="Cantarell" font-size="11" font-weight="400" font-style="normal" 
>
</g>

<g fill="none" stroke="#000000" stroke-opacity="1" stroke-width="1" stroke-linecap="square" stroke-linejoin="bevel" transform="matrix(1.00625,0,0,1.00625,29.1813,95.0906)"
font-family="Cantarell" font-size="11" font-weight="400" font-style="normal" 
>
</g>

<g fill="none" stroke="#000000" stroke-opacity="1" stroke-width="1" stroke-linecap="square" stroke-linejoin="bevel" transform="matrix(1.00625,0,0,1.00625,29.1813,95.0906)"
font-family="Cantarell" font-size="11" font-weight="400" font-style="normal" 
>
</g>

<g fill="none" stroke="#000000" stroke-opacity="1" stroke-width="1" stroke-linecap="square" stroke-linejoin="bevel" transform="matrix(1.00625,0,0,1.00625,29.1813,95.0906)"
font-family="Sans" font-size="9" font-weight="400" font-style="normal" 
>
<text fill="#000000" fill-opacity="1" stroke="none" xml:space="preserve" x="0" y="0" font-family="Sans" font-size="9" font-weight="400" font-style="normal" 
 > 4</text>
</g>

<g fill="none" stroke="#000000" stroke-opacity="1" stroke-width="1" stroke-linecap="square" stroke-linejoin="bevel" transform="matrix(1.00625,0,0,1.00625,29.1813,95.0906)"
font-family="Cantarell" font-size="11" font-weight="400" font-style="normal" 
>
</g>

<g fill="none" stroke="#000000" stroke-opacity="1" stroke-width="1" stroke-linecap="square" stroke-linejoin="bevel" transform="matrix(1.00625,0,0,1.00625,0,0)"
font-family="Cantarell" font-size="11" font-weight="400" font-style="normal" 
>
</g>

<g fill="none" stroke="#000000" stroke-opacity="1" stroke-width="1.8" stroke-linecap="round" stroke-linejoin="round" transform="matrix(1.00625,0,0,1.00625,0,0)"
font-family="Cantarell" font-size="11" font-weight="400" font-style="normal" 
>
<polyline fill="none" vector-effect="none" points="56.5,432.5 56.5,426.5 " />
<polyline fill="none" vector-effect="none" points="56.5,15.5 56.5,21.5 " />
</g>

<g fill="none" stroke="#000000" stroke-opacity="1" stroke-width="1" stroke-linecap="square" stroke-linejoin="bevel" transform="matrix(1.00625,0,0,1.00625,0,0)"
font-family="Cantarell" font-size="11" font-weight="400" font-style="normal" 
>
</g>

<g fill="none" stroke="#000000" stroke-opacity="1" stroke-width="1" stroke-linecap="square" stroke-linejoin="bevel" transform="matrix(1.00625,0,0,1.00625,51.8219,454.322)"
font-family="Cantarell" font-size="11" font-weight="400" font-style="normal" 
>
</g>

<g fill="none" stroke="#000000" stroke-opacity="1" stroke-width="1" stroke-linecap="square" stroke-linejoin="bevel" transform="matrix(1.00625,0,0,1.00625,51.8219,454.322)"
font-family="Cantarell" font-size="11" font-weight="400" font-style="normal" 
>
</g>

<g fill="none" stroke="#000000" stroke-opacity="1" stroke-width="1" stroke-linecap="square" stroke-linejoin="bevel" transform="matrix(1.00625,0,0,1.00625,51.8219,454.322)"
font-family="Cantarell" font-size="11" font-weight="400" font-style="normal" 
>
</g>

<g fill="none" stroke="#000000" stroke-opacity="1" stroke-width="1" stroke-linecap="square" stroke-linejoin="bevel" transform="matrix(1.00625,0,0,1.00625,51.8219,454.322)"
font-family="Cantarell" font-size="11" font-weight="400" font-style="normal" 
>
</g>

<g fill="none" stroke="#000000" stroke-opacity="1" stroke-width="1" stroke-linecap="square" stroke-linejoin="bevel" transform="matrix(1.00625,0,0,1.00625,51.8219,454.322)"
font-family="Cantarell" font-size="11" font-weight="400" font-style="normal" 
>
</g>

<g fill="none" stroke="#000000" stroke-opacity="1" stroke-width="1" stroke-linecap="square" stroke-linejoin="bevel" transform="matrix(1.00625,0,0,1.00625,51.8219,454.322)"
font-family="Sans" font-size="9" font-weight="400" font-style="normal" 
>
<text fill="#000000" fill-opacity="1" stroke="none" xml:space="preserve" x="0" y="0" font-family="Sans" font-size="9" font-weight="400" font-style="normal" 
 > 0</text>
</g>

<g fill="none" stroke="#000000" stroke-opacity="1" stroke-width="1" stroke-linecap="square" stroke-linejoin="bevel" transform="matrix(1.00625,0,0,1.00625,51.8219,454.322)"
font-family="Cantarell" font-size="11" font-weight="400" font-style="normal" 
>
</g>

<g fill="none" stroke="#000000" stroke-opacity="1" stroke-width="1" stroke-linecap="square" stroke-linejoin="bevel" transform="matrix(1.00625,0,0,1.00625,0,0)"
font-family="Cantarell" font-size="11" font-weight="400" font-style="normal" 
>
</g>

<g fill="none" stroke="#000000" stroke-opacity="1" stroke-width="1.8" stroke-linecap="round" stroke-linejoin="round" transform="matrix(1.00625,0,0,1.00625,0,0)"
font-family="Cantarell" font-size="11" font-weight="400" font-style="normal" 
>
<polyline fill="none" vector-effect="none" points="148.5,432.5 148.5,426.5 " />
<polyline fill="none" vector-effect="none" points="148.5,15.5 148.5,21.5 " />
</g>

<g fill="none" stroke="#000000" stroke-opacity="1" stroke-width="1" stroke-linecap="square" stroke-linejoin="bevel" transform="matrix(1.00625,0,0,1.00625,0,0)"
font-family="Cantarell" font-size="11" font-weight="400" font-style="normal" 
>
</g>

<g fill="none" stroke="#000000" stroke-opacity="1" stroke-width="1" stroke-linecap="square" stroke-linejoin="bevel" transform="matrix(1.00625,0,0,1.00625,137.353,454.322)"
font-family="Cantarell" font-size="11" font-weight="400" font-style="normal" 
>
</g>

<g fill="none" stroke="#000000" stroke-opacity="1" stroke-width="1" stroke-linecap="square" stroke-linejoin="bevel" transform="matrix(1.00625,0,0,1.00625,137.353,454.322)"
font-family="Cantarell" font-size="11" font-weight="400" font-style="normal" 
>
</g>

<g fill="none" stroke="#000000" stroke-opacity="1" stroke-width="1" stroke-linecap="square" stroke-linejoin="bevel" transform="matrix(1.00625,0,0,1.00625,137.353,454.322)"
font-family="Cantarell" font-size="11" font-weight="400" font-style="normal" 
>
</g>

<g fill="none" stroke="#000000" stroke-opacity="1" stroke-width="1" stroke-linecap="square" stroke-linejoin="bevel" transform="matrix(1.00625,0,0,1.00625,137.353,454.322)"
font-family="Cantarell" font-size="11" font-weight="400" font-style="normal" 
>
</g>

<g fill="none" stroke="#000000" stroke-opacity="1" stroke-width="1" stroke-linecap="square" stroke-linejoin="bevel" transform="matrix(1.00625,0,0,1.00625,137.353,454.322)"
font-family="Cantarell" font-size="11" font-weight="400" font-style="normal" 
>
</g>

<g fill="none" stroke="#000000" stroke-opacity="1" stroke-width="1" stroke-linecap="square" stroke-linejoin="bevel" transform="matrix(1.00625,0,0,1.00625,137.353,454.322)"
font-family="Sans" font-size="9" font-weight="400" font-style="normal" 
>
<text fill="#000000" fill-opacity="1" stroke="none" xml:space="preserve" x="0" y="0" font-family="Sans" font-size="9" font-weight="400" font-style="normal" 
 > 0.5</text>
</g>

<g fill="none" stroke="#000000" stroke-opacity="1" stroke-width="1" stroke-linecap="square" stroke-linejoin="bevel" transform="matrix(1.00625,0,0,1.00625,137.353,454.322)"
font-family="Cantarell" font-size="11" font-weight="400" font-style="normal" 
>
</g>

<g fill="none" stroke="#000000" stroke-opacity="1" stroke-width="1" stroke-linecap="square" stroke-linejoin="bevel" transform="matrix(1.00625,0,0,1.00625,0,0)"
font-family="Cantarell" font-size="11" font-weight="400" font-style="normal" 
>
</g>

<g fill="none" stroke="#000000" stroke-opacity="1" stroke-width="1.8" stroke-linecap="round" stroke-linejoin="round" transform="matrix(1.00625,0,0,1.00625,0,0)"
font-family="Cantarell" font-size="11" font-weight="400" font-style="normal" 
>
<polyline fill="none" vector-effect="none" points="240.5,432.5 240.5,426.5 " />
<polyline fill="none" vector-effect="none" points="240.5,15.5 240.5,21.5 " />
</g>

<g fill="none" stroke="#000000" stroke-opacity="1" stroke-width="1" stroke-linecap="square" stroke-linejoin="bevel" transform="matrix(1.00625,0,0,1.00625,0,0)"
font-family="Cantarell" font-size="11" font-weight="400" font-style="normal" 
>
</g>

<g fill="none" stroke="#000000" stroke-opacity="1" stroke-width="1" stroke-linecap="square" stroke-linejoin="bevel" transform="matrix(1.00625,0,0,1.00625,235.966,454.322)"
font-family="Cantarell" font-size="11" font-weight="400" font-style="normal" 
>
</g>

<g fill="none" stroke="#000000" stroke-opacity="1" stroke-width="1" stroke-linecap="square" stroke-linejoin="bevel" transform="matrix(1.00625,0,0,1.00625,235.966,454.322)"
font-family="Cantarell" font-size="11" font-weight="400" font-style="normal" 
>
</g>

<g fill="none" stroke="#000000" stroke-opacity="1" stroke-width="1" stroke-linecap="square" stroke-linejoin="bevel" transform="matrix(1.00625,0,0,1.00625,235.966,454.322)"
font-family="Cantarell" font-size="11" font-weight="400" font-style="normal" 
>
</g>

<g fill="none" stroke="#000000" stroke-opacity="1" stroke-width="1" stroke-linecap="square" stroke-linejoin="bevel" transform="matrix(1.00625,0,0,1.00625,235.966,454.322)"
font-family="Cantarell" font-size="11" font-weight="400" font-style="normal" 
>
</g>

<g fill="none" stroke="#000000" stroke-opacity="1" stroke-width="1" stroke-linecap="square" stroke-linejoin="bevel" transform="matrix(1.00625,0,0,1.00625,235.966,454.322)"
font-family="Cantarell" font-size="11" font-weight="400" font-style="normal" 
>
</g>

<g fill="none" stroke="#000000" stroke-opacity="1" stroke-width="1" stroke-linecap="square" stroke-linejoin="bevel" transform="matrix(1.00625,0,0,1.00625,235.966,454.322)"
font-family="Sans" font-size="9" font-weight="400" font-style="normal" 
>
<text fill="#000000" fill-opacity="1" stroke="none" xml:space="preserve" x="0" y="0" font-family="Sans" font-size="9" font-weight="400" font-style="normal" 
 > 1</text>
</g>

<g fill="none" stroke="#000000" stroke-opacity="1" stroke-width="1" stroke-linecap="square" stroke-linejoin="bevel" transform="matrix(1.00625,0,0,1.00625,235.966,454.322)"
font-family="Cantarell" font-size="11" font-weight="400" font-style="normal" 
>
</g>

<g fill="none" stroke="#000000" stroke-opacity="1" stroke-width="1" stroke-linecap="square" stroke-linejoin="bevel" transform="matrix(1.00625,0,0,1.00625,0,0)"
font-family="Cantarell" font-size="11" font-weight="400" font-style="normal" 
>
</g>

<g fill="none" stroke="#000000" stroke-opacity="1" stroke-width="1.8" stroke-linecap="round" stroke-linejoin="round" transform="matrix(1.00625,0,0,1.00625,0,0)"
font-family="Cantarell" font-size="11" font-weight="400" font-style="normal" 
>
<polyline fill="none" vector-effect="none" points="331.5,432.5 331.5,426.5 " />
<polyline fill="none" vector-effect="none" points="331.5,15.5 331.5,21.5 " />
</g>

<g fill="none" stroke="#000000" stroke-opacity="1" stroke-width="1" stroke-linecap="square" stroke-linejoin="bevel" transform="matrix(1.00625,0,0,1.00625,0,0)"
font-family="Cantarell" font-size="11" font-weight="400" font-style="normal" 
>
</g>

<g fill="none" stroke="#000000" stroke-opacity="1" stroke-width="1" stroke-linecap="square" stroke-linejoin="bevel" transform="matrix(1.00625,0,0,1.00625,322.503,454.322)"
font-family="Cantarell" font-size="11" font-weight="400" font-style="normal" 
>
</g>

<g fill="none" stroke="#000000" stroke-opacity="1" stroke-width="1" stroke-linecap="square" stroke-linejoin="bevel" transform="matrix(1.00625,0,0,1.00625,322.503,454.322)"
font-family="Cantarell" font-size="11" font-weight="400" font-style="normal" 
>
</g>

<g fill="none" stroke="#000000" stroke-opacity="1" stroke-width="1" stroke-linecap="square" stroke-linejoin="bevel" transform="matrix(1.00625,0,0,1.00625,322.503,454.322)"
font-family="Cantarell" font-size="11" font-weight="400" font-style="normal" 
>
</g>

<g fill="none" stroke="#000000" stroke-opacity="1" stroke-width="1" stroke-linecap="square" stroke-linejoin="bevel" transform="matrix(1.00625,0,0,1.00625,322.503,454.322)"
font-family="Cantarell" font-size="11" font-weight="400" font-style="normal" 
>
</g>

<g fill="none" stroke="#000000" stroke-opacity="1" stroke-width="1" stroke-linecap="square" stroke-linejoin="bevel" transform="matrix(1.00625,0,0,1.00625,322.503,454.322)"
font-family="Cantarell" font-size="11" font-weight="400" font-style="normal" 
>
</g>

<g fill="none" stroke="#000000" stroke-opacity="1" stroke-width="1" stroke-linecap="square" stroke-linejoin="bevel" transform="matrix(1.00625,0,0,1.00625,322.503,454.322)"
font-family="Sans" font-size="9" font-weight="400" font-style="normal" 
>
<text fill="#000000" fill-opacity="1" stroke="none" xml:space="preserve" x="0" y="0" font-family="Sans" font-size="9" font-weight="400" font-style="normal" 
 > 1.5</text>
</g>

<g fill="none" stroke="#000000" stroke-opacity="1" stroke-width="1" stroke-linecap="square" stroke-linejoin="bevel" transform="matrix(1.00625,0,0,1.00625,322.503,454.322)"
font-family="Cantarell" font-size="11" font-weight="400" font-style="normal" 
>
</g>

<g fill="none" stroke="#000000" stroke-opacity="1" stroke-width="1" stroke-linecap="square" stroke-linejoin="bevel" transform="matrix(1.00625,0,0,1.00625,0,0)"
font-family="Cantarell" font-size="11" font-weight="400" font-style="normal" 
>
</g>

<g fill="none" stroke="#000000" stroke-opacity="1" stroke-width="1.8" stroke-linecap="round" stroke-linejoin="round" transform="matrix(1.00625,0,0,1.00625,0,0)"
font-family="Cantarell" font-size="11" font-weight="400" font-style="normal" 
>
<polyline fill="none" vector-effect="none" points="423.5,432.5 423.5,426.5 " />
<polyline fill="none" vector-effect="none" points="423.5,15.5 423.5,21.5 " />
</g>

<g fill="none" stroke="#000000" stroke-opacity="1" stroke-width="1" stroke-linecap="square" stroke-linejoin="bevel" transform="matrix(1.00625,0,0,1.00625,0,0)"
font-family="Cantarell" font-size="11" font-weight="400" font-style="normal" 
>
</g>

<g fill="none" stroke="#000000" stroke-opacity="1" stroke-width="1" stroke-linecap="square" stroke-linejoin="bevel" transform="matrix(1.00625,0,0,1.00625,420.109,454.322)"
font-family="Cantarell" font-size="11" font-weight="400" font-style="normal" 
>
</g>

<g fill="none" stroke="#000000" stroke-opacity="1" stroke-width="1" stroke-linecap="square" stroke-linejoin="bevel" transform="matrix(1.00625,0,0,1.00625,420.109,454.322)"
font-family="Cantarell" font-size="11" font-weight="400" font-style="normal" 
>
</g>

<g fill="none" stroke="#000000" stroke-opacity="1" stroke-width="1" stroke-linecap="square" stroke-linejoin="bevel" transform="matrix(1.00625,0,0,1.00625,420.109,454.322)"
font-family="Cantarell" font-size="11" font-weight="400" font-style="normal" 
>
</g>

<g fill="none" stroke="#000000" stroke-opacity="1" stroke-width="1" stroke-linecap="square" stroke-linejoin="bevel" transform="matrix(1.00625,0,0,1.00625,420.109,454.322)"
font-family="Cantarell" font-size="11" font-weight="400" font-style="normal" 
>
</g>

<g fill="none" stroke="#000000" stroke-opacity="1" stroke-width="1" stroke-linecap="square" stroke-linejoin="bevel" transform="matrix(1.00625,0,0,1.00625,420.109,454.322)"
font-family="Cantarell" font-size="11" font-weight="400" font-style="normal" 
>
</g>

<g fill="none" stroke="#000000" stroke-opacity="1" stroke-width="1" stroke-linecap="square" stroke-linejoin="bevel" transform="matrix(1.00625,0,0,1.00625,420.109,454.322)"
font-family="Sans" font-size="9" font-weight="400" font-style="normal" 
>
<text fill="#000000" fill-opacity="1" stroke="none" xml:space="preserve" x="0" y="0" font-family="Sans" font-size="9" font-weight="400" font-style="normal" 
 > 2</text>
</g>

<g fill="none" stroke="#000000" stroke-opacity="1" stroke-width="1" stroke-linecap="square" stroke-linejoin="bevel" transform="matrix(1.00625,0,0,1.00625,420.109,454.322)"
font-family="Cantarell" font-size="11" font-weight="400" font-style="normal" 
>
</g>

<g fill="none" stroke="#000000" stroke-opacity="1" stroke-width="1" stroke-linecap="square" stroke-linejoin="bevel" transform="matrix(1.00625,0,0,1.00625,0,0)"
font-family="Cantarell" font-size="11" font-weight="400" font-style="normal" 
>
</g>

<g fill="none" stroke="#000000" stroke-opacity="1" stroke-width="1.8" stroke-linecap="round" stroke-linejoin="round" transform="matrix(1.00625,0,0,1.00625,0,0)"
font-family="Cantarell" font-size="11" font-weight="400" font-style="normal" 
>
<polyline fill="none" vector-effect="none" points="514.5,432.5 514.5,426.5 " />
<polyline fill="none" vector-effect="none" points="514.5,15.5 514.5,21.5 " />
</g>

<g fill="none" stroke="#000000" stroke-opacity="1" stroke-width="1" stroke-linecap="square" stroke-linejoin="bevel" transform="matrix(1.00625,0,0,1.00625,0,0)"
font-family="Cantarell" font-size="11" font-weight="400" font-style="normal" 
>
</g>

<g fill="none" stroke="#000000" stroke-opacity="1" stroke-width="1" stroke-linecap="square" stroke-linejoin="bevel" transform="matrix(1.00625,0,0,1.00625,506.647,454.322)"
font-family="Cantarell" font-size="11" font-weight="400" font-style="normal" 
>
</g>

<g fill="none" stroke="#000000" stroke-opacity="1" stroke-width="1" stroke-linecap="square" stroke-linejoin="bevel" transform="matrix(1.00625,0,0,1.00625,506.647,454.322)"
font-family="Cantarell" font-size="11" font-weight="400" font-style="normal" 
>
</g>

<g fill="none" stroke="#000000" stroke-opacity="1" stroke-width="1" stroke-linecap="square" stroke-linejoin="bevel" transform="matrix(1.00625,0,0,1.00625,506.647,454.322)"
font-family="Cantarell" font-size="11" font-weight="400" font-style="normal" 
>
</g>

<g fill="none" stroke="#000000" stroke-opacity="1" stroke-width="1" stroke-linecap="square" stroke-linejoin="bevel" transform="matrix(1.00625,0,0,1.00625,506.647,454.322)"
font-family="Cantarell" font-size="11" font-weight="400" font-style="normal" 
>
</g>

<g fill="none" stroke="#000000" stroke-opacity="1" stroke-width="1" stroke-linecap="square" stroke-linejoin="bevel" transform="matrix(1.00625,0,0,1.00625,506.647,454.322)"
font-family="Cantarell" font-size="11" font-weight="400" font-style="normal" 
>
</g>

<g fill="none" stroke="#000000" stroke-opacity="1" stroke-width="1" stroke-linecap="square" stroke-linejoin="bevel" transform="matrix(1.00625,0,0,1.00625,506.647,454.322)"
font-family="Sans" font-size="9" font-weight="400" font-style="normal" 
>
<text fill="#000000" fill-opacity="1" stroke="none" xml:space="preserve" x="0" y="0" font-family="Sans" font-size="9" font-weight="400" font-style="normal" 
 > 2.5</text>
</g>

<g fill="none" stroke="#000000" stroke-opacity="1" stroke-width="1" stroke-linecap="square" stroke-linejoin="bevel" transform="matrix(1.00625,0,0,1.00625,506.647,454.322)"
font-family="Cantarell" font-size="11" font-weight="400" font-style="normal" 
>
</g>

<g fill="none" stroke="#000000" stroke-opacity="1" stroke-width="1" stroke-linecap="square" stroke-linejoin="bevel" transform="matrix(1.00625,0,0,1.00625,0,0)"
font-family="Cantarell" font-size="11" font-weight="400" font-style="normal" 
>
</g>

<g fill="none" stroke="#000000" stroke-opacity="1" stroke-width="1.8" stroke-linecap="round" stroke-linejoin="round" transform="matrix(1.00625,0,0,1.00625,0,0)"
font-family="Cantarell" font-size="11" font-weight="400" font-style="normal" 
>
<polyline fill="none" vector-effect="none" points="606.5,432.5 606.5,426.5 " />
<polyline fill="none" vector-effect="none" points="606.5,15.5 606.5,21.5 " />
</g>

<g fill="none" stroke="#000000" stroke-opacity="1" stroke-width="1" stroke-linecap="square" stroke-linejoin="bevel" transform="matrix(1.00625,0,0,1.00625,0,0)"
font-family="Cantarell" font-size="11" font-weight="400" font-style="normal" 
>
</g>

<g fill="none" stroke="#000000" stroke-opacity="1" stroke-width="1" stroke-linecap="square" stroke-linejoin="bevel" transform="matrix(1.00625,0,0,1.00625,604.253,454.322)"
font-family="Cantarell" font-size="11" font-weight="400" font-style="normal" 
>
</g>

<g fill="none" stroke="#000000" stroke-opacity="1" stroke-width="1" stroke-linecap="square" stroke-linejoin="bevel" transform="matrix(1.00625,0,0,1.00625,604.253,454.322)"
font-family="Cantarell" font-size="11" font-weight="400" font-style="normal" 
>
</g>

<g fill="none" stroke="#000000" stroke-opacity="1" stroke-width="1" stroke-linecap="square" stroke-linejoin="bevel" transform="matrix(1.00625,0,0,1.00625,604.253,454.322)"
font-family="Cantarell" font-size="11" font-weight="400" font-style="normal" 
>
</g>

<g fill="none" stroke="#000000" stroke-opacity="1" stroke-width="1" stroke-linecap="square" stroke-linejoin="bevel" transform="matrix(1.00625,0,0,1.00625,604.253,454.322)"
font-family="Cantarell" font-size="11" font-weight="400" font-style="normal" 
>
</g>

<g fill="none" stroke="#000000" stroke-opacity="1" stroke-width="1" stroke-linecap="square" stroke-linejoin="bevel" transform="matrix(1.00625,0,0,1.00625,604.253,454.322)"
font-family="Cantarell" font-size="11" font-weight="400" font-style="normal" 
>
</g>

<g fill="none" stroke="#000000" stroke-opacity="1" stroke-width="1" stroke-linecap="square" stroke-linejoin="bevel" transform="matrix(1.00625,0,0,1.00625,604.253,454.322)"
font-family="Sans" font-size="9" font-weight="400" font-style="normal" 
>
<text fill="#000000" fill-opacity="1" stroke="none" xml:space="preserve" x="0" y="0" font-family="Sans" font-size="9" font-weight="400" font-style="normal" 
 > 3</text>
</g>

<g fill="none" stroke="#000000" stroke-opacity="1" stroke-width="1" stroke-linecap="square" stroke-linejoin="bevel" transform="matrix(1.00625,0,0,1.00625,604.253,454.322)"
font-family="Cantarell" font-size="11" font-weight="400" font-style="normal" 
>
</g>

<g fill="none" stroke="#000000" stroke-opacity="1" stroke-width="1" stroke-linecap="square" stroke-linejoin="bevel" transform="matrix(1.00625,0,0,1.00625,0,0)"
font-family="Cantarell" font-size="11" font-weight="400" font-style="normal" 
>
</g>

<g fill="none" stroke="#000000" stroke-opacity="1" stroke-dasharray="1.8,3.6" stroke-dashoffset="0" stroke-width="1.8" stroke-linecap="round" stroke-linejoin="round" transform="matrix(1.00625,0,0,1.00625,0,0)"
font-family="Cantarell" font-size="11" font-weight="400" font-style="normal" 
>
<polyline fill="none" vector-effect="none" points="46.5,256.5 618.5,256.5 " />
</g>

<g fill="none" stroke="#000000" stroke-opacity="1" stroke-width="1.8" stroke-linecap="round" stroke-linejoin="round" transform="matrix(1.00625,0,0,1.00625,0,0)"
font-family="Cantarell" font-size="11" font-weight="400" font-style="normal" 
>
<polyline fill="none" vector-effect="none" points="46.5,15.5 46.5,432.5 618.5,432.5 618.5,15.5 46.5,15.5 " />
</g>

<g fill="none" stroke="#000000" stroke-opacity="1" stroke-width="1" stroke-linecap="square" stroke-linejoin="bevel" transform="matrix(1.00625,0,0,1.00625,0,0)"
font-family="Cantarell" font-size="11" font-weight="400" font-style="normal" 
>
</g>

<g fill="none" stroke="#000000" stroke-opacity="1" stroke-width="1" stroke-linecap="square" stroke-linejoin="bevel" transform="matrix(0,-1.00625,1.00625,0,15.5969,228.922)"
font-family="Cantarell" font-size="11" font-weight="400" font-style="normal" 
>
</g>

<g fill="none" stroke="#000000" stroke-opacity="1" stroke-width="1" stroke-linecap="square" stroke-linejoin="bevel" transform="matrix(0,-1.00625,1.00625,0,15.5969,228.922)"
font-family="Cantarell" font-size="11" font-weight="400" font-style="normal" 
>
</g>

<g fill="none" stroke="#000000" stroke-opacity="1" stroke-width="1" stroke-linecap="square" stroke-linejoin="bevel" transform="matrix(0,-1.00625,1.00625,0,15.5969,228.922)"
font-family="Cantarell" font-size="11" font-weight="400" font-style="normal" 
>
</g>

<g fill="none" stroke="#000000" stroke-opacity="1" stroke-width="1" stroke-linecap="square" stroke-linejoin="bevel" transform="matrix(0,-1.00625,1.00625,0,15.5969,228.922)"
font-family="Cantarell" font-size="11" font-weight="400" font-style="normal" 
>
</g>

<g fill="none" stroke="#000000" stroke-opacity="1" stroke-width="1" stroke-linecap="square" stroke-linejoin="bevel" transform="matrix(0,-1.00625,1.00625,0,15.5969,228.922)"
font-family="Cantarell" font-size="11" font-weight="400" font-style="normal" 
>
</g>

<g fill="none" stroke="#000000" stroke-opacity="1" stroke-width="1" stroke-linecap="square" stroke-linejoin="bevel" transform="matrix(0,-1.00625,1.00625,0,15.5969,228.922)"
font-family="Sans" font-size="9" font-weight="400" font-style="normal" 
>
<text fill="#000000" fill-opacity="1" stroke="none" xml:space="preserve" x="0" y="0" font-family="Sans" font-size="9" font-weight="400" font-style="normal" 
 >y</text>
</g>

<g fill="none" stroke="#000000" stroke-opacity="1" stroke-width="1" stroke-linecap="square" stroke-linejoin="bevel" transform="matrix(0,-1.00625,1.00625,0,15.5969,228.922)"
font-family="Cantarell" font-size="11" font-weight="400" font-style="normal" 
>
</g>

<g fill="none" stroke="#000000" stroke-opacity="1" stroke-width="1" stroke-linecap="square" stroke-linejoin="bevel" transform="matrix(1.00625,0,0,1.00625,331.559,477.466)"
font-family="Cantarell" font-size="11" font-weight="400" font-style="normal" 
>
</g>

<g fill="none" stroke="#000000" stroke-opacity="1" stroke-width="1" stroke-linecap="square" stroke-linejoin="bevel" transform="matrix(1.00625,0,0,1.00625,331.559,477.466)"
font-family="Cantarell" font-size="11" font-weight="400" font-style="normal" 
>
</g>

<g fill="none" stroke="#000000" stroke-opacity="1" stroke-width="1" stroke-linecap="square" stroke-linejoin="bevel" transform="matrix(1.00625,0,0,1.00625,331.559,477.466)"
font-family="Cantarell" font-size="11" font-weight="400" font-style="normal" 
>
</g>

<g fill="none" stroke="#000000" stroke-opacity="1" stroke-width="1" stroke-linecap="square" stroke-linejoin="bevel" transform="matrix(1.00625,0,0,1.00625,331.559,477.466)"
font-family="Cantarell" font-size="11" font-weight="400" font-style="normal" 
>
</g>

<g fill="none" stroke="#000000" stroke-opacity="1" stroke-width="1" stroke-linecap="square" stroke-linejoin="bevel" transform="matrix(1.00625,0,0,1.00625,331.559,477.466)"
font-family="Cantarell" font-size="11" font-weight="400" font-style="normal" 
>
</g>

<g fill="none" stroke="#000000" stroke-opacity="1" stroke-width="1" stroke-linecap="square" stroke-linejoin="bevel" transform="matrix(1.00625,0,0,1.00625,331.559,477.466)"
font-family="Sans" font-size="9" font-weight="400" font-style="normal" 
>
<text fill="#000000" fill-opacity="1" stroke="none" xml:space="preserve" x="0" y="0" font-family="Sans" font-size="9" font-weight="400" font-style="normal" 
 >x</text>
</g>

<g fill="none" stroke="#000000" stroke-opacity="1" stroke-width="1" stroke-linecap="square" stroke-linejoin="bevel" transform="matrix(1.00625,0,0,1.00625,331.559,477.466)"
font-family="Cantarell" font-size="11" font-weight="400" font-style="normal" 
>
</g>

<g fill="none" stroke="#000000" stroke-opacity="1" stroke-width="1" stroke-linecap="square" stroke-linejoin="bevel" transform="matrix(1.00625,0,0,1.00625,0,0)"
font-family="Cantarell" font-size="11" font-weight="400" font-style="normal" 
>
</g>

<g fill="none" stroke="#000000" stroke-opacity="1" stroke-width="1" stroke-linecap="square" stroke-linejoin="bevel" transform="matrix(1.00625,0,0,1.00625,0,0)"
font-family="Cantarell" font-size="11" font-weight="400" font-style="normal" 
>
</g>

<g fill="none" stroke="#000000" stroke-opacity="1" stroke-width="1" stroke-linecap="square" stroke-linejoin="bevel" transform="matrix(1.00625,0,0,1.00625,0,0)"
font-family="Cantarell" font-size="11" font-weight="400" font-style="normal" 
>
</g>

<g fill="none" stroke="#000000" stroke-opacity="1" stroke-width="1.8" stroke-linecap="round" stroke-linejoin="round" transform="matrix(1.00625,0,0,1.00625,0,0)"
font-family="Cantarell" font-size="11" font-weight="400" font-style="normal" 
>
<polyline fill="none" vector-effect="none" points="56.5,348.5 56.5,354.5 " />
<polyline fill="none" vector-effect="none" points="53.5,351.5 59.5,351.5 " />
</g>

<g fill="none" stroke="#000000" stroke-opacity="1" stroke-width="1.8" stroke-linecap="round" stroke-linejoin="round" transform="matrix(1.00625,0,0,1.00625,0,0)"
font-family="Cantarell" font-size="11" font-weight="400" font-style="normal" 
>
<polyline fill="none" vector-effect="none" points="107.5,335.5 107.5,341.5 " />
<polyline fill="none" vector-effect="none" points="104.5,338.5 110.5,338.5 " />
</g>

<g fill="none" stroke="#000000" stroke-opacity="1" stroke-width="1.8" stroke-linecap="round" stroke-linejoin="round" transform="matrix(1.00625,0,0,1.00625,0,0)"
font-family="Cantarell" font-size="11" font-weight="400" font-style="normal" 
>
<polyline fill="none" vector-effect="none" points="158.5,264.5 158.5,270.5 " />
<polyline fill="none" vector-effect="none" points="155.5,267.5 161.5,267.5 " />
</g>

<g fill="none" stroke="#000000" stroke-opacity="1" stroke-width="1.8" stroke-linecap="round" stroke-linejoin="round" transform="matrix(1.00625,0,0,1.00625,0,0)"
font-family="Cantarell" font-size="11" font-weight="400" font-style="normal" 
>
<polyline fill="none" vector-effect="none" points="209.5,270.5 209.5,276.5 " />
<polyline fill="none" vector-effect="none" points="206.5,273.5 212.5,273.5 " />
</g>

<g fill="none" stroke="#000000" stroke-opacity="1" stroke-width="1.8" stroke-linecap="round" stroke-linejoin="round" transform="matrix(1.00625,0,0,1.00625,0,0)"
font-family="Cantarell" font-size="11" font-weight="400" font-style="normal" 
>
<polyline fill="none" vector-effect="none" points="260.5,215.5 260.5,221.5 " />
<polyline fill="none" vector-effect="none" points="257.5,218.5 263.5,218.5 " />
</g>

<g fill="none" stroke="#000000" stroke-opacity="1" stroke-width="1.8" stroke-linecap="round" stroke-linejoin="round" transform="matrix(1.00625,0,0,1.00625,0,0)"
font-family="Cantarell" font-size="11" font-weight="400" font-style="normal" 
>
<polyline fill="none" vector-effect="none" points="311.5,224.5 311.5,230.5 " />
<polyline fill="none" vector-effect="none" points="308.5,227.5 314.5,227.5 " />
</g>

<g fill="none" stroke="#000000" stroke-opacity="1" stroke-width="1.8" stroke-linecap="round" stroke-linejoin="round" transform="matrix(1.00625,0,0,1.00625,0,0)"
font-family="Cantarell" font-size="11" font-weight="400" font-style="normal" 
>
<polyline fill="none" vector-effect="none" points="362.5,209.5 362.5,215.5 " />
<polyline fill="none" vector-effect="none" points="359.5,212.5 365.5,212.5 " />
</g>

<g fill="none" stroke="#000000" stroke-opacity="1" stroke-width="1.8" stroke-linecap="round" stroke-linejoin="round" transform="matrix(1.00625,0,0,1.00625,0,0)"
font-family="Cantarell" font-size="11" font-weight="400" font-style="normal" 
>
<polyline fill="none" vector-effect="none" points="413.5,118.5 413.5,124.5 " />
<polyline fill="none" vector-effect="none" points="410.5,121.5 416.5,121.5 " />
</g>

<g fill="none" stroke="#000000" stroke-opacity="1" stroke-width="1.8" stroke-linecap="round" stroke-linejoin="round" transform="matrix(1.00625,0,0,1.00625,0,0)"
font-family="Cantarell" font-size="11" font-weight="400" font-style="normal" 
>
<polyline fill="none" vector-effect="none" points="463.5,49.5 463.5,55.5 " />
<polyline fill="none" vector-effect="none" points="460.5,52.5 466.5,52.5 " />
</g>

<g fill="none" stroke="#000000" stroke-opacity="1" stroke-width="1.8" stroke-linecap="round" stroke-linejoin="round" transform="matrix(1.00625,0,0,1.00625,0,0)"
font-family="Cantarell" font-size="11" font-weight="400" font-style="normal" 
>
<polyline fill="none" vector-effect="none" points="514.5,67.5 514.5,73.5 " />
<polyline fill="none" vector-effect="none" points="511.5,70.5 517.5,70.5 " />
</g>

<g fill="none" stroke="#000000" stroke-opacity="1" stroke-width="1" stroke-linecap="square" stroke-linejoin="bevel" transform="matrix(1.00625,0,0,1.00625,0,0)"
font-family="Cantarell" font-size="11" font-weight="400" font-style="normal" 
>
</g>

<g fill="none" stroke="#000000" stroke-opacity="1" stroke-width="1" stroke-linecap="square" stroke-linejoin="bevel" transform="matrix(1.00625,0,0,1.00625,0,0)"
font-family="Cantarell" font-size="11" font-weight="400" font-style="normal" 
>
</g>

<g fill="none" stroke="#000000" stroke-opacity="1" stroke-width="1.8" stroke-linecap="round" stroke-linejoin="round" transform="matrix(1.00625,0,0,1.00625,0,0)"
font-family="Cantarell" font-size="11" font-weight="400" font-style="normal" 
>
<polyline fill="none" vector-effect="none" points="46.5,15.5 46.5,15.5 46.5,432.5 618.5,432.5 618.5,15.5 46.5,15.5 " />
</g>

<g fill="none" stroke="#000000" stroke-opacity="1" stroke-width="1" stroke-linecap="square" stroke-linejoin="bevel" transform="matrix(1.00625,0,0,1.00625,0,0)"
font-family="Cantarell" font-size="11" font-weight="400" font-style="normal" 
>
</g>

<g fill="none" stroke="#000000" stroke-opacity="1" stroke-width="1" stroke-linecap="square" stroke-linejoin="bevel" transform="matrix(1,0,0,1,0,0)"
font-family="Cantarell" font-size="11" font-weight="400" font-style="normal" 
>
</g>
</g>
</svg>
